<?xml version="1.0" encoding="UTF-8"?>
<svg width="253px" height="191px" viewBox="0 0 253 191" version="1.1" xmlns="http://www.w3.org/2000/svg" xmlns:xlink="http://www.w3.org/1999/xlink">
    <!-- Generator: Sketch 63.1 (92452) - https://sketch.com -->
    <title>undraw_certificate_343v</title>
    <desc>Created with Sketch.</desc>
    <g id="02-Components" stroke="none" stroke-width="1" fill="none" fill-rule="evenodd">
        <g id="Artboard" transform="translate(-722.000000, -78.000000)" fill-rule="nonzero">
            <g id="undraw_certificate_343v" transform="translate(722.000000, 78.000000)">
                <path d="M216.699507,103.406103 C216.699507,132.766261 199.486299,158.740404 173.099058,174.551862 C156.180589,184.69134 135.488535,190.653417 113.146409,190.653417 C83.3824355,190.653417 60.6782678,179.404608 43.5996652,162.172834 C27.8578304,146.294074 16.8967976,125.330489 9.59331035,103.406103 C-23.0112948,5.51802249 31.4550357,-21.1871658 113.146409,16.158788 C165.159673,39.9397895 216.699507,55.2221196 216.699507,103.406103 Z" id="Path" fill="#303D65"></path>
                <path d="M173.099058,52.1610139 L173.099058,174.783942 C156.180589,184.92342 135.488535,190.885497 113.146409,190.885497 C83.3824355,190.885497 60.6782678,179.636688 43.5996652,162.404914 L43.5996652,52.1610139 L173.099058,52.1610139 Z" id="Path" fill="#F2F2F2"></path>
                <path d="M56.0554528,111.90985 C62.8357836,109.753115 69.870672,108.498919 76.9785861,108.179627 C80.5402609,108.028121 84.1083601,108.167723 87.64731,108.597042 C91.1520588,109.060562 94.6144355,109.801836 98.0017519,110.813865 C101.348452,111.782841 104.648944,112.902214 107.984356,113.908225 C111.37268,114.943042 114.817307,115.783617 118.301431,116.425849 C121.767393,117.053027 125.268074,117.470266 128.784352,117.675288 C132.266226,117.877646 135.782213,117.917136 139.25434,117.546204 C142.497531,117.23394 145.674098,116.428701 148.674402,115.158279 C151.472626,113.937187 154.058656,112.27849 156.33544,110.244436 C156.903601,109.737254 157.450228,109.207718 157.975323,108.655829 C158.285074,108.33203 157.793483,107.838967 157.483011,108.163518 C153.044615,112.803196 147.210797,115.680067 140.883185,116.640767 C137.436134,117.164123 133.923217,117.194486 130.44584,117.059523 C126.890585,116.922305 123.347292,116.564293 119.836445,115.987556 C116.36802,115.412361 112.936879,114.631369 109.5612,113.648716 C106.245286,112.688074 102.974526,111.580506 99.6702053,110.581857 C96.3369375,109.535151 92.9341109,108.724428 89.4869649,108.155699 C86.0300035,107.629129 82.5357201,107.386591 79.0391605,107.430519 C72.0521929,107.542238 65.1100872,108.570264 58.3906054,110.488274 C57.5466406,110.725247 56.7065594,110.975317 55.8703615,111.238486 C55.4442667,111.37207 55.6261948,112.044425 56.0554482,111.90985 L56.0554528,111.90985 Z" id="Path" fill="#3F3D56"></path>
                <path d="M56.0554528,129.54776 C62.8357836,127.391025 69.870672,126.136829 76.9785861,125.817537 C80.5402609,125.666031 84.1083601,125.805634 87.64731,126.234952 C91.1520588,126.698472 94.6144355,127.439746 98.0017519,128.451775 C101.348452,129.420751 104.648944,130.540124 107.984356,131.546135 C111.37268,132.580953 114.817307,133.421527 118.301431,134.063759 C121.767393,134.690937 125.268074,135.108176 128.784352,135.313198 C132.266226,135.515556 135.782213,135.555046 139.25434,135.184114 C142.497531,134.87185 145.674098,134.066611 148.674402,132.796189 C151.472626,131.575097 154.058656,129.9164 156.33544,127.882347 C156.903601,127.375164 157.450228,126.845628 157.975323,126.293739 C158.285074,125.96994 157.793483,125.476877 157.483011,125.801428 C153.044615,130.441106 147.210797,133.317977 140.883185,134.278677 C137.436134,134.802033 133.923217,134.832396 130.44584,134.697433 C126.890585,134.560215 123.347292,134.202203 119.836445,133.625466 C116.36802,133.050271 112.936879,132.269279 109.5612,131.286626 C106.245286,130.325984 102.974526,129.218416 99.6702053,128.219767 C96.3369375,127.173061 92.9341109,126.362338 89.4869649,125.79361 C86.0300035,125.267039 82.5357201,125.024501 79.0391605,125.068429 C72.0521929,125.180148 65.1100872,126.208174 58.3906054,128.126184 C57.5466406,128.363157 56.7065594,128.613228 55.8703615,128.876396 C55.4442667,129.00998 55.6261948,129.682335 56.0554482,129.54776 L56.0554528,129.54776 Z" id="Path" fill="#3F3D56"></path>
                <path d="M56.0554528,95.896484 C62.8357836,93.7397492 69.870672,92.4855535 76.9785861,92.1662609 C80.5402609,92.0147554 84.1083601,92.1543577 87.64731,92.583676 C91.1520588,93.0471963 94.6144355,93.7884701 98.0017519,94.8004991 C101.348452,95.7694748 104.648944,96.8888485 107.984356,97.8948592 C111.37268,98.9296767 114.817307,99.7702516 118.301431,100.412483 C121.767393,101.039661 125.268074,101.4569 128.784352,101.661922 C132.266226,101.86428 135.782213,101.90377 139.25434,101.532838 C142.497531,101.220574 145.674098,100.415335 148.674402,99.1449136 C151.472626,97.9238214 154.058656,96.2651238 156.33544,94.2310707 C156.903601,93.723888 157.450228,93.1943523 157.975323,92.6424636 C158.285074,92.3186641 157.793483,91.8256009 157.483011,92.1501524 C153.044615,96.7898302 147.210797,99.666701 140.883185,100.627401 C137.436134,101.150757 133.923217,101.18112 130.44584,101.046157 C126.890584,100.908943 123.34729,100.550934 119.836443,99.9741994 C116.368018,99.3990017 112.936878,98.618006 109.5612,97.6353498 C106.245286,96.674708 102.974526,95.5671401 99.6702053,94.5684909 C96.3369375,93.5217854 92.9341109,92.7110619 89.4869649,92.1423337 C86.0300035,91.6157631 82.5357201,91.3732254 79.0391605,91.4171534 C72.0521929,91.5288721 65.1100872,92.5568982 58.3906054,94.4749079 C57.5466406,94.7118794 56.7065594,94.9619501 55.8703615,95.2251201 C55.4442667,95.3587041 55.6261948,96.0310589 56.0554482,95.896484 L56.0554528,95.896484 Z" id="Path" fill="#3F3D56"></path>
                <path d="M55.2259141,65.6198672 C56.9104227,64.8736072 58.8401075,65.0037402 60.5883261,65.4364445 C62.4733452,65.9030067 64.2484245,66.7144062 66.1040301,67.2754287 C69.4255018,68.2650762 72.9537033,68.3320046 76.3103182,67.4690373 C78.2000284,66.9870209 80.0032998,66.2141057 81.6555124,65.1779888 C82.03395,64.9401091 81.6849329,64.337431 81.3041118,64.5768122 C78.3590329,66.4158145 74.9547427,67.3863286 71.4826644,67.3767655 C69.7413088,67.3741582 68.0095252,67.1191614 66.341325,66.6197278 C64.4992495,66.0674059 62.738378,65.2655239 60.8722918,64.7899176 C58.8951935,64.2860188 56.7749937,64.176745 54.8745112,65.018686 C54.4656876,65.1997995 54.8195088,65.7999015 55.2259141,65.6198625 L55.2259141,65.6198672 Z" id="Path" fill="#3F3D56"></path>
                <circle id="Oval" fill="#303D65" cx="106.956897" cy="161.701716" r="10.6755772"></circle>
                <circle id="Oval" fill="#F2F2F2" cx="49.4016116" cy="24.5437576" r="5.80194411"></circle>
                <circle id="Oval" fill="#F2F2F2" cx="100.226642" cy="41.0212789" r="3.94532199"></circle>
                <circle id="Oval" fill="#F2F2F2" cx="36.173179" cy="78.8499544" r="3.94532199"></circle>
                <rect id="Rectangle" fill="#3F3D56" x="19.8535565" y="49.5403036" width="1" height="77.8027523"></rect>
                <ellipse id="Oval" fill="#9CAAD6" cx="20.1550093" cy="101.314481" rx="8.48400417" ry="19.360932"></ellipse>
                <ellipse id="Oval" fill="#9CAAD6" cx="20.1550093" cy="57.154153" rx="8.48400417" ry="19.360932"></ellipse>
                <path d="M20.3634128,41.3362966 L19.9466011,41.211383 C19.9729419,41.1234256 22.5307197,32.3582638 18.3308757,26.7156434 C15.9587718,23.5288328 11.8883134,21.9129078 6.23252495,21.9129078 L6.23252495,21.4778293 C12.0342602,21.4778293 16.2225165,23.1532382 18.6810834,26.4575219 C23.0109466,32.2770041 20.3903918,41.2464338 20.3634128,41.3362966 Z" id="Path" fill="#3F3D56"></path>
                <circle id="Oval" fill="#9CAAD6" cx="6.23254119" cy="21.6953674" r="5.43846391"></circle>
                <path d="M178.871572,144.973713 L174.802669,182.407646 L202.878118,182.407646 L204.098792,179.559411 L205.726353,182.407646 L232.174244,182.407646 C232.174244,182.407646 230.139792,143.753036 226.477777,142.532362 C222.815761,141.311689 178.871572,144.973713 178.871572,144.973713 Z" id="Path" fill="#2F2E41"></path>
                <circle id="Oval" fill="#FFB8B8" cx="202.878121" cy="48.5406263" r="14.2411712"></circle>
                <path d="M194.740307,57.4922323 C194.740307,57.4922323 195.960978,70.5127232 194.740307,71.3265132 C193.519636,72.1403031 214.271057,71.7334058 214.271057,71.7334058 C214.271057,71.7334058 211.422822,59.9335767 214.271057,54.2371073 L194.740307,57.4922323 Z" id="Path" fill="#FFB8B8"></path>
                <path d="M202.064338,68.4782669 C202.064338,68.4782669 212.534113,70.108945 213.402585,66.8522628 L218.746853,74.1747363 L219.153743,147.415051 C219.153743,147.415051 175.616447,152.70463 173.988883,144.159928 C172.36132,135.615226 190.671401,68.0713765 190.671401,68.0713765 L195.280967,67.7729895 C195.280967,67.7729895 201.250557,68.4782669 202.064338,68.4782669 Z" id="Path" fill="#9CAAD6"></path>
                <path d="M195.211678,64.4314341 L188.230057,66.8507055 L168.292416,71.7333896 L169.106197,120.560265 C169.106197,120.560265 152.016791,169.387141 159.747712,173.049156 C167.478633,176.711172 178.464682,168.166472 181.719807,162.063108 C184.974932,155.959743 196.367859,71.3265039 196.367859,69.6989425 C196.367859,68.0713812 195.211678,64.4314341 195.211678,64.4314341 Z" id="Path" fill="#303D65"></path>
                <path d="M213.141045,64.4314341 L215.898618,66.8507055 L235.429369,75.8023 L225.664001,125.036066 C225.664001,125.036066 238.684491,169.794036 233.801807,172.23538 C228.919123,174.676725 221.595088,181.593865 219.967526,177.524957 C218.339965,173.456049 208.755908,68.929303 213.141045,64.4314341 Z" id="Path" fill="#303D65"></path>
                <path d="M224.443323,129.511862 C224.443323,129.511862 206.133243,121.780941 205.726353,128.698081 C205.319463,135.615222 226.477777,140.49791 226.477777,138.463449 C226.477777,136.428989 224.443323,129.511862 224.443323,129.511862 Z" id="Path" fill="#FFB8B8"></path>
                <path d="M179.685353,126.66363 C179.685353,126.66363 200.843667,142.532362 192.705844,146.60127 C184.56802,150.670178 173.988874,132.360097 173.988874,132.360097 L179.685353,126.66363 Z" id="Path" fill="#FFB8B8"></path>
                <path d="M209.200613,27.6795529 C209.337498,27.389886 209.636594,27.2123872 209.956434,27.2310092 C203.436569,26.8410118 196.569117,27.6009203 191.114586,31.1938067 C189.586983,32.2000332 188.160415,33.4304794 186.421303,33.9975382 L187.832955,35.1045746 L186.1463,35.6187267 L188.628474,37.2229944 C188.118266,37.8030587 187.336229,38.0650539 186.57955,37.9094178 C187.658289,38.2245794 188.452524,39.1845435 188.855929,40.2334816 C189.259333,41.2824197 189.331809,42.4247993 189.399961,43.5465658 C189.816902,41.9279858 191.583348,40.9752091 193.251953,40.8783979 C194.920557,40.7815866 196.547898,41.3321378 198.171785,41.7279069 C201.708687,42.5874077 205.382062,42.7287184 208.974541,42.143477 C207.754627,44.5916119 208.783676,47.5117118 209.8192,50.04336 L211.886839,55.0983038 C213.034756,55.2137601 213.84613,54.0721928 214.71096,53.3085758 C215.499192,52.6125931 212.361073,58.7337138 212.846947,58.5094385 C213.478156,58.2180904 220.139134,50.8639313 220.45106,50.2426335 C221.874192,47.4080148 222.728029,44.2462779 222.599611,41.0770704 C222.471193,37.9078628 221.311579,34.7370957 219.127052,32.4373954 C217.643999,30.8761758 215.592202,30.6027534 214.080289,29.3051927 C213.485223,28.7944939 213.483039,28.3955198 212.665272,28.0977547 C212.393648,27.9988617 209.245529,27.5798755 209.200613,27.6795529 Z" id="Path" fill="#2F2E41"></path>
                <path d="M171.140649,72.9540653 L168.292423,71.7333942 L145.506541,109.167331 C145.506541,109.167331 141.437633,118.932699 148.761664,123.408505 C156.085694,127.88431 173.175107,141.311691 173.175107,141.311691 L182.940475,126.256737 C182.940475,126.256737 163.002835,116.898252 164.223506,113.236246 C165.444177,109.57424 171.954429,99.8088556 171.954429,99.8088556 L171.140649,72.9540653 Z" id="Path" fill="#303D65"></path>
                <path d="M230.139792,74.9885193 L235.429369,75.8023 C235.429369,75.8023 257.401463,118.932706 252.111887,127.07052 C246.82231,135.208334 225.257103,146.601275 225.257103,146.601275 C225.257103,146.601275 224.850213,133.173884 221.188197,128.291196 L233.801807,123.408512 L226.884667,96.5537282 L230.139792,74.9885193 Z" id="Path" fill="#303D65"></path>
            </g>
        </g>
    </g>
</svg>