<?xml version="1.0" encoding="UTF-8"?>
<svg width="257px" height="191px" viewBox="0 0 257 191" version="1.1" xmlns="http://www.w3.org/2000/svg" xmlns:xlink="http://www.w3.org/1999/xlink">
    <!-- Generator: Sketch 63.1 (92452) - https://sketch.com -->
    <title>email</title>
    <desc>Created with Sketch.</desc>
    <g id="02-Components" stroke="none" stroke-width="1" fill="none" fill-rule="evenodd">
        <g id="Artboard" transform="translate(-403.000000, -406.000000)" fill-rule="nonzero">
            <g id="email" transform="translate(403.000000, 406.000000)">
                <rect id="Rectangle" fill="#3F3D56" x="28.608583" y="179.857029" width="155.97143" height="1"></rect>
                <path d="M111.323267,88.7337871 C111.323267,88.7337871 108.013162,103.629263 114.633373,100.981184 C121.253585,98.333105 117.28146,88.071766 117.28146,88.071766 L111.323267,88.7337871 Z" id="Path" fill="#FFB9B9"></path>
                <path d="M173.222275,93.6989485 C173.222275,93.6989485 181.166535,103.298258 176.201373,105.284319 C171.236212,107.270379 168.588125,96.3470275 169.250146,95.3540014 C169.912167,94.3609753 173.222275,93.6989485 173.222275,93.6989485 Z" id="Path" fill="#FFB9B9"></path>
                <circle id="Oval" fill="#FFB9B9" cx="154.354661" cy="15.9114219" r="9.93032279"></circle>
                <polygon id="Path" fill="#FFB9B9" points="146.907047 19.7181557 145.582949 29.9794273 156.506129 33.951442 158.823372 22.366072"></polygon>
                <path d="M153.030619,29.8138743 C153.030619,29.8138743 147.419199,27.0436395 146.252784,24.7876378 L143.762323,27.165787 C143.762323,27.165787 125.887741,25.5107341 123.239656,34.4480252 C120.591572,43.3853162 122.908646,75.8243664 122.908646,75.8243664 C122.908646,75.8243664 119.267527,90.38884 120.260558,90.7198422 C121.25359,91.0508443 133.500981,97.0090458 150.713548,93.6989401 C150.713548,93.6989401 158.326794,92.374895 159.650839,93.3679267 C160.974884,94.3609585 158.988818,77.4794136 158.988818,77.4794136 C158.988818,77.4794136 172.229241,47.6884453 169.912172,44.0473262 C167.595104,40.4062071 157.333762,32.7929611 157.333762,32.7929611 L157.995783,29.1518448 C157.995783,29.1518448 153.36163,31.1379166 153.030619,29.8138743 Z" id="Path" fill="#9CAAD6"></path>
                <path d="M125.887738,32.1309484 C125.887738,32.1309484 119.929545,35.1100463 118.936513,39.7441971 C117.943482,44.378348 108.675188,82.775594 109.668212,85.092668 C110.661235,87.409742 110.330241,90.38884 110.330241,90.38884 L118.936519,89.3958083 C118.936519,89.3958083 117.281466,87.0787315 118.274498,86.0857026 C119.26753,85.0926736 120.260561,81.7825623 119.59854,80.45852 C118.936519,79.1344777 118.274498,81.4515517 121.915617,77.1484143 C125.556736,72.8452768 133.831998,33.4549935 125.887738,32.1309484 Z" id="Path" fill="#9CAAD6"></path>
                <path d="M167.926103,43.3853134 C167.926103,43.3853134 170.739696,43.5508187 171.401717,48.1849695 C172.063738,52.8191204 173.222275,81.4515489 173.222275,81.4515489 C173.222275,81.4515489 177.525416,90.7198506 175.870363,92.0438929 C174.21531,93.3679352 175.208339,95.3539986 175.208339,95.3539986 L169.250146,97.0090515 L156.340728,76.8173953 L167.926103,43.3853134 Z" id="Path" fill="#9CAAD6"></path>
                <path d="M121.25359,89.3958083 C121.25359,89.3958083 119.267524,89.7268189 119.267524,97.0090543 C119.267524,104.29129 115.626408,126.800023 117.943482,130.441139 C120.260556,134.082255 120.591566,166.852322 120.591566,166.852322 C120.591566,166.852322 126.880773,169.500406 132.176936,160.894128 L132.838957,156.259978 L134.163,133.751247 L139.459172,105.615349 L146.741404,136.730343 C146.741404,136.730343 145.748373,174.134557 149.389492,174.134557 C153.030611,174.134557 159.981836,171.155462 159.981836,171.155462 C159.981836,171.155462 161.636888,167.845356 160.974867,166.190303 C160.312846,164.53525 159.650825,164.866261 160.312846,163.542216 C160.974867,162.218171 161.967899,127.793057 161.967899,127.793057 C161.967899,127.793057 160.643857,92.3749062 158.988804,91.3818745 C157.333751,90.3888428 121.25359,89.3958083 121.25359,89.3958083 Z" id="Path" fill="#303D65"></path>
                <path d="M121.25359,165.528279 L115.957418,171.155462 C115.957418,171.155462 106.358106,180.09275 114.633373,180.423761 C122.90864,180.754771 127.542794,175.127589 127.542794,174.465568 C127.542794,173.803546 127.873804,171.486472 130.190878,171.486472 C132.507952,171.486472 138.135138,165.85929 136.81109,163.542213 C135.487042,161.225136 131.514918,160.232107 131.514918,160.232107 L121.25359,165.528279 Z" id="Path" fill="#2F2E41"></path>
                <path d="M149.720513,172.810515 C149.720513,172.810515 145.748384,180.754774 148.065461,182.409827 C150.382537,184.06488 151.044556,184.726901 151.044556,184.726901 C151.044556,184.726901 153.030619,184.39589 152.699609,187.374988 C152.368598,190.354086 164.615998,192.009139 165.278019,189.692062 C165.94004,187.374985 165.609029,182.740837 164.284984,181.416798 C162.960939,180.092758 158.988815,170.824454 158.988815,170.824454 C158.988815,170.824454 154.685675,165.85929 149.720513,172.810515 Z" id="Path" fill="#2F2E41"></path>
                <path d="M164.376687,7.93765429 L166.247356,7.67192028 C166.247356,7.67192028 163.643171,2.87875424 158.602824,2.00840567 L160.372121,0.814246182 C160.372121,0.814246182 157.297643,-1.38293256 153.324299,1.44126468 C151.235589,2.92587599 148.810448,4.67831081 147.026544,6.88406351 L145.201728,6.43809394 L145.553496,8.30120498 L142.478021,9.32672352 L145.28765,9.69417275 C144.900182,10.5726609 144.646033,11.5040718 144.533607,12.457609 C144.424669,13.4122992 144.690903,14.3719706 145.276123,15.1340855 L145.276123,15.1340855 C145.276123,15.1340855 148.458334,11.276396 148.62506,10.5942287 L148.208281,12.2996399 C148.208281,12.2996399 150.28734,11.1812073 150.537413,10.1579718 L151.175081,11.5789024 L152.098259,9.81651372 L157.371241,13.0931874 L156.816932,11.3311802 L160.254696,12.7135209 L159.318984,10.4968327 C159.318984,10.4968327 162.804664,13.6981582 162.50114,15.6119838 C162.197562,17.5257701 162.942007,19.5914478 162.942007,19.5914478 C162.942007,19.5914478 168.243738,11.5936243 164.376687,7.93765429 Z" id="Path" fill="#2F2E41"></path>
                <rect id="Rectangle" fill="#3F3D56" x="203.037995" y="120.447932" width="53.0088106" height="1"></rect>
                <rect id="Rectangle" fill="#9CAAD6" x="45.126608" y="169.322033" width="12.7776588" height="12.7776588"></rect>
                <path d="M56.2229956,180.41842 L42.7728289,180.41842 L42.7728289,166.968254 L56.2229956,166.968254 L56.2229956,180.41842 Z M43.4453368,179.745913 L55.5504877,179.745913 L55.5504877,167.640762 L43.4453368,167.640762 L43.4453368,179.745913 Z" id="Shape" fill="#3F3D56"></path>
                <polygon id="Rectangle" fill="#F2F2F2" transform="translate(69.350373, 63.141311) rotate(-21.144190) translate(-69.350373, -63.141311) " points="65.0153457 58.9563878 73.6853995 58.9563878 73.6853995 67.326235 65.0153457 67.326235"></polygon>
                <path d="M73.4418644,64.8651258 L64.9299171,68.1571552 L61.7518762,59.9399481 L70.2638235,56.6479187 L73.4418644,64.8651258 Z M65.1966103,67.5816927 L72.8573651,64.6188648 L69.9971331,57.2233756 L62.3363783,60.1862035 L65.1966103,67.5816927 Z" id="Shape" fill="#3F3D56"></path>
                <polygon id="Rectangle" fill="#F2F2F2" transform="translate(215.104773, 150.100904) rotate(71.027060) translate(-215.104773, -150.100904) " points="210.769746 145.91598 219.4398 145.91598 219.4398 154.285827 210.769746 154.285827"></polygon>
                <path d="M213.227206,154.12416 L210.260025,145.493602 L218.591742,142.629163 L221.558923,151.259721 L213.227206,154.12416 Z M210.824981,145.781908 L213.495444,153.54941 L220.993989,150.971415 L218.323526,143.20391 L210.824981,145.781908 Z" id="Shape" fill="#3F3D56"></path>
                <path d="M40.2027262,112.081919 C44.9436827,112.183617 48.7150548,115.619287 48.7150548,115.619287 C48.7150548,115.619287 44.7998213,118.89007 40.0588647,118.788369 C35.3179082,118.686668 31.5465276,115.251001 31.5465276,115.251001 C31.5465276,115.251001 35.4617724,111.980218 40.2027262,112.081919 Z" id="Path" fill="#9CAAD6"></path>
                <path d="M16.3676258,95.8985758 C20.6508751,97.933469 25.562391,96.5535796 25.562391,96.5535796 C25.562391,96.5535796 23.5293882,91.8744778 19.2461388,89.8395846 C14.9628895,87.8046913 10.0513764,89.1845836 10.0513764,89.1845836 C10.0513764,89.1845836 12.0843765,93.8636853 16.3676258,95.8985758 Z" id="Path" fill="#9CAAD6"></path>
                <path d="M16.8030301,93.8764131 C21.5253971,93.44484 25.6588671,96.4350614 25.6588671,96.4350614 C25.6588671,96.4350614 22.1358847,100.124999 17.4135121,100.556567 C12.6911394,100.988134 8.55767507,97.9979182 8.55767507,97.9979182 C8.55767507,97.9979182 12.0806631,94.3079861 16.8030301,93.8764131 Z" id="Path" fill="#303D65"></path>
                <path d="M34.1137499,94.6940137 C33.6611136,99.4144062 36.6328604,103.561187 36.6328604,103.561187 C36.6328604,103.561187 40.3384792,100.054697 40.7911071,95.334304 C41.2437351,90.6139115 38.2719966,86.4671276 38.2719966,86.4671276 C38.2719966,86.4671276 34.5663863,89.9736324 34.1137499,94.6940137 Z" id="Path" fill="#303D65"></path>
                <path d="M56.3537591,123.644044 C53.8768537,127.6878 54.7290278,132.717806 54.7290278,132.717806 C54.7290278,132.717806 59.5970597,131.191584 62.0739735,127.147831 C64.5508873,123.104077 63.6987047,118.074068 63.6987047,118.074068 C63.6987047,118.074068 58.8306645,119.600293 56.3537591,123.644044 Z" id="Path" fill="#303D65"></path>
                <path d="M49.167938,167.610039 L49.5289028,167.366058 C48.2565654,165.519668 47.5618482,163.336712 47.5330285,161.094577 C47.5431254,157.814777 49.1541052,154.7812 50.7121099,151.847471 C51.0012912,151.30293 51.2895161,150.760089 51.5667858,150.217674 C52.7306336,148.005728 53.6581441,145.677292 54.3339523,143.27094 C56.7505679,134.290361 54.3712828,123.694982 47.9695126,114.928181 C42.8910245,107.973576 35.3205109,101.89215 24.8256387,96.336336 L24.6218633,96.7213454 C35.0569618,102.245464 42.5789765,108.285091 47.6176883,115.185136 C53.9424556,123.846327 56.2958981,134.303442 53.9132082,143.157776 C53.2452905,145.53466 52.328835,147.834569 51.1790137,150.019427 C50.9025938,150.559822 50.6154347,151.100535 50.3273164,151.643163 C48.7445294,154.623677 47.1078193,157.705654 47.097397,161.093301 C47.1261874,163.422791 47.8468992,165.691131 49.167938,167.610039 Z" id="Path" fill="#3F3D56"></path>
                <circle id="Oval" fill="#303D65" cx="4.13860258" cy="92.7702314" r="4.13851564"></circle>
                <polygon id="Path" fill="#2F2E41" points="229.436717 117.215662 176.165667 98.0828473 185.67612 71.6028429 218.845332 63.4683744 238.947451 90.7359383"></polygon>
                <path d="M222.98339,111.964831 L183.173743,96.7896118 C193.508413,82.9465657 198.129907,73.1816809 198.133303,57.8157954 L237.942951,72.9910118 C228.694394,86.1285163 224.826748,96.0045261 222.98339,111.964831 Z" id="Path" fill="#F2F2F2"></path>
                <polygon id="Rectangle" fill="#3F3D56" transform="translate(215.621767, 71.616303) rotate(20.866570) translate(-215.621767, -71.616303) " points="204.585808 71.1030027 226.657726 71.1030027 226.657726 72.1296039 204.585808 72.1296039"></polygon>
                <polygon id="Rectangle" fill="#3F3D56" transform="translate(214.159094, 75.453378) rotate(20.866570) translate(-214.159094, -75.453378) " points="203.123135 74.9400779 225.195053 74.9400779 225.195053 75.966679 203.123135 75.966679"></polygon>
                <polygon id="Rectangle" fill="#3F3D56" transform="translate(212.696423, 79.290448) rotate(20.866570) translate(-212.696423, -79.290448) " points="201.660464 78.7771476 223.732382 78.7771476 223.732382 79.8037487 201.660464 79.8037487"></polygon>
                <polygon id="Rectangle" fill="#3F3D56" transform="translate(211.233751, 83.127524) rotate(20.866570) translate(-211.233751, -83.127524) " points="200.197792 82.6142237 222.26971 82.6142237 222.26971 83.6408249 200.197792 83.6408249"></polygon>
                <polygon id="Rectangle" fill="#3F3D56" transform="translate(209.771078, 86.964599) rotate(20.866570) translate(-209.771078, -86.964599) " points="198.735119 86.4512988 220.807037 86.4512988 220.807037 87.4779 198.735119 87.4779"></polygon>
                <polygon id="Rectangle" fill="#3F3D56" transform="translate(208.308409, 90.801676) rotate(20.866570) translate(-208.308409, -90.801676) " points="197.27245 90.288375 219.344368 90.288375 219.344368 91.3149761 197.27245 91.3149761"></polygon>
                <polygon id="Rectangle" fill="#3F3D56" transform="translate(206.845736, 94.638751) rotate(20.866570) translate(-206.845736, -94.638751) " points="195.809778 94.1254501 217.881695 94.1254501 217.881695 95.1520513 195.809778 95.1520513"></polygon>
                <polygon id="Rectangle" fill="#3F3D56" transform="translate(205.383062, 98.475823) rotate(20.866570) translate(-205.383062, -98.475823) " points="194.347103 97.9625226 216.419021 97.9625226 216.419021 98.9891238 194.347103 98.9891238"></polygon>
                <polygon id="Path" fill="#303D65" points="228.206015 120.642443 174.934965 101.509628 185.67612 71.6028429 208.17205 92.695862 238.947451 90.7359383"></polygon>
                <polygon id="Path" fill="#6C63FF" points="201.138426 111.218935 174.576244 101.678752 181.048367 83.6577195 181.576492 83.8473172 175.293966 101.340225 201.328023 110.690811"></polygon>
                <polygon id="Rectangle" fill="#9CAAD6" transform="translate(187.243085, 92.213024) rotate(19.756267) translate(-187.243085, -92.213024) " points="183.105446 90.5579685 191.380724 90.5579685 191.380724 93.8680804 183.105446 93.8680804"></polygon>
                <polygon id="Path" fill="#303D65" points="103.639517 180.092806 61.9459838 180.070649 62.2732922 156.663753 82.9938473 165.976756 103.966825 157.24685"></polygon>
                <polygon id="Rectangle" fill="#9CAAD6" transform="translate(68.296369, 170.648652) rotate(0.801170) translate(-68.296369, -170.648652) " points="65.2482899 169.42942 71.3444489 169.42942 71.3444489 171.867884 65.2482899 171.867884"></polygon>
                <polygon id="Path" fill="#9CAAD6" points="104.106219 157.214877 83.0317107 167.958837 62.1636285 157.214877 62.1636285 156.595038 104.106219 156.595038"></polygon>
                <ellipse id="Oval" fill="#9CAAD6" transform="translate(218.706999, 66.123215) rotate(-69.133430) translate(-218.706999, -66.123215) " cx="218.706999" cy="66.1232148" rx="2.53254781" ry="7.01174743"></ellipse>
                <path d="M230.985185,28.7629957 C228.286022,27.9237057 225.364003,28.1910294 222.861938,29.5061586 C220.359874,30.8212879 218.482721,33.076494 217.643431,35.7756575 C215.8957,41.3963724 220.658763,61.9728304 220.658763,61.9728304 C220.658763,61.9728304 236.25011,47.7254645 237.997839,42.1047496 C239.74557,36.4840354 236.605899,30.5107295 230.985185,28.7629957 L230.985185,28.7629957 Z M226.321652,43.760986 C223.659208,42.9331138 222.171993,40.103653 222.999865,37.4412084 C223.827737,34.7787638 226.657198,33.2915491 229.319643,34.1194212 C231.982087,34.9472934 233.469302,37.7767541 232.64143,40.4391987 C232.243872,41.7177498 231.354694,42.7860053 230.169506,43.4089612 C228.984318,44.0319172 227.600203,44.1585443 226.321652,43.760986 L226.321652,43.760986 Z" id="Shape" fill="#9CAAD6"></path>
            </g>
        </g>
    </g>
</svg>