<?xml version="1.0" encoding="UTF-8"?>
<svg width="115px" height="68px" viewBox="0 0 115 68" version="1.1" xmlns="http://www.w3.org/2000/svg" xmlns:xlink="http://www.w3.org/1999/xlink">
    <!-- Generator: Sketch 63.1 (92452) - https://sketch.com -->
    <title>Group 6</title>
    <desc>Created with Sketch.</desc>
    <g id="02-Components" stroke="none" stroke-width="1" fill="none" fill-rule="evenodd">
        <g id="Artboard-Copy-7" transform="translate(-604.000000, -740.000000)" fill-rule="nonzero">
            <g id="Group-6" transform="translate(604.000000, 740.000000)">
                <g id="Group-4" transform="translate(35.000000, 0.000000)" fill="#E6E6E6">
                    <path d="M63,60 L1,60 C0.44771525,60 0,59.5522847 0,59 L0,55 C0,54.4477153 0.44771525,54 1,54 L63,54 C63.5522847,54 64,54.4477153 64,55 L64,59 C64,59.5522847 63.5522847,60 63,60 Z M2,58 L62,58 L62,56 L2,56 L2,58 Z" id="Shape-Copy"></path>
                    <path d="M46,56 L18,56 C17.4477153,56 17,55.5522847 17,55 L17,37 C17,36.4477153 17.4477153,36 18,36 L46,36 C46.5522847,36 47,36.4477153 47,37 L47,55 C47,55.5522847 46.5522847,56 46,56 Z M19,54 L45,54 L45,38 L19,38 L19,54 Z" id="Shape-Copy-2"></path>
                    <path d="M46,38 L18,38 C17.4477154,38 17,37.5522923 17,37.000017 L17,29.0001528 C17,28.5535815 17.2956394,28.1609762 17.7250002,28.0381691 L31.7250002,24.038237 C31.904789,23.9872543 32.0952114,23.9872543 32.2750002,24.038237 L46.2750002,28.0381691 C46.7043609,28.1609762 47,28.5535815 47,29.0001528 L47,37.000017 C47,37.5522923 46.5522849,38 46,38 Z M19.0000002,36.000034 L45.0000002,36.000034 L45.0000002,29.75414 L32.0000002,26.040203 L19.0000002,29.75414 L19.0000002,36.000034 Z" id="Shape-Copy-3"></path>
                    <path d="M45,29 L43,29 L43,22 L21,22 L21,29 L19,29 L19,21 C19,20.4477153 19.4477153,20 20,20 L44,20 C44.5522847,20 45,20.4477153 45,21 L45,29 Z" id="Path-Copy-3"></path>
                    <path d="M42,18 L27,18 L27,16 L41,16 L41,15 C41,10.0294373 36.9705627,6 32,6 C27.0294373,6 23,10.0294373 23,15 L23,16 L25,16 L25,18 L22,18 C21.4477153,18 21,17.5522847 21,17 L21,15 C21,8.92486775 25.9248678,4 32,4 C38.0751322,4 43,8.92486775 43,15 L43,17 C43,17.2652165 42.8946432,17.5195704 42.7071068,17.7071068 C42.5195704,17.8946432 42.2652165,18 42,18 Z" id="Path-Copy-4"></path>
                    <path d="M35,6 L33,6 L33,2 L31,2 L31,6 L29,6 L29,1 C29,0.44771525 29.4477153,0 30,0 L34,0 C34.5522847,0 35,0.44771525 35,1 L35,6 Z" id="Path-Copy-5"></path>
                    <path d="M62,55 L60,55 L60,38 L46,38 L46,36 L61,36 C61.5522847,36 62,36.4477153 62,37 L62,55 Z" id="Path-Copy-7"></path>
                    <path d="M60.5596231,38 L53.72751,31.0673022 L46,31.0673022 L46,29 L54.1492328,29 C54.4193746,29 54.678431,29.1089992 54.8694213,29.3028598 L62,36.5384174 L60.5596231,38 Z" id="Path-Copy-8"></path>
                    <path d="M4,55 L2,55 L2,37 C2,36.4477153 2.44771525,36 3,36 L18,36 L18,38 L4,38 L4,55 Z" id="Path-Copy-9"></path>
                    <path d="M3.4403769,38 L2,36.5384174 L9.13057872,29.3028598 C9.32156896,29.1089992 9.58062539,29 9.85076717,29 L18,29 L18,31.0673022 L10.27249,31.0673022 L3.4403769,38 Z" id="Path-Copy-10"></path>
                    <path d="M14,48 L8,48 C7.44771525,48 7,47.5522847 7,47 L7,41 C7,40.4477153 7.44771525,40 8,40 L14,40 C14.5522847,40 15,40.4477153 15,41 L15,47 C15,47.5522847 14.5522847,48 14,48 Z M9,46 L13,46 L13,42 L9,42 L9,46 Z" id="Shape-Copy-4"></path>
                    <path d="M56,48 L50,48 C49.4477153,48 49,47.5522847 49,47 L49,41 C49,40.4477153 49.4477153,40 50,40 L56,40 C56.5522847,40 57,40.4477153 57,41 L57,47 C57,47.5522847 56.5522847,48 56,48 Z M51,46 L55,46 L55,42 L51,42 L51,46 Z" id="Shape-Copy-5"></path>
                    <path d="M26,56 L22,56 C21.4477153,56 21,55.5522847 21,55 L21,37 C21,36.4477153 21.4477153,36 22,36 L26,36 C26.5522847,36 27,36.4477153 27,37 L27,55 C27,55.5522847 26.5522847,56 26,56 Z M23,54 L25,54 L25,38 L23,38 L23,54 Z" id="Shape-Copy-6"></path>
                    <path d="M34,56 L30,56 C29.4477153,56 29,55.5522847 29,55 L29,37 C29,36.4477153 29.4477153,36 30,36 L34,36 C34.5522847,36 35,36.4477153 35,37 L35,55 C35,55.5522847 34.5522847,56 34,56 Z M31,54 L33,54 L33,38 L31,38 L31,54 Z" id="Shape-Copy-7"></path>
                    <path d="M42,56 L38,56 C37.4477153,56 37,55.5522847 37,55 L37,37 C37,36.4477153 37.4477153,36 38,36 L42,36 C42.5522847,36 43,36.4477153 43,37 L43,55 C43,55.5522847 42.5522847,56 42,56 Z M39,54 L41,54 L41,38 L39,38 L39,54 Z" id="Shape-Copy-8"></path>
                    <rect id="Rectangle-Copy" x="22" y="40" width="4" height="2"></rect>
                    <rect id="Rectangle-Copy-2" x="30" y="40" width="4" height="2"></rect>
                    <rect id="Rectangle-Copy-3" x="38" y="40" width="4" height="2"></rect>
                    <rect id="Rectangle-Copy-4" x="22" y="50" width="4" height="2"></rect>
                    <rect id="Rectangle-Copy-5" x="30" y="50" width="4" height="2"></rect>
                    <rect id="Rectangle-Copy-6" x="38" y="50" width="4" height="2"></rect>
                    <rect id="Rectangle-Copy-7" x="22" y="13" width="17" height="2"></rect>
                    <rect id="Rectangle-Copy-8" x="21" y="17" width="2" height="4"></rect>
                    <rect id="Rectangle-Copy-9" x="41" y="17" width="2" height="4"></rect>
                    <rect id="Rectangle-Copy-10" x="21" y="32" width="2" height="2"></rect>
                    <rect id="Rectangle-Copy-11" x="25" y="32" width="18" height="2"></rect>
                </g>
                <g id="Group-3-Copy-2" transform="translate(88.000000, 4.000000)">
                    <g id="Group-3-Copy">
                        <rect id="Rectangle" fill="#3F3D56" x="2.3625" y="63.311828" width="24.6375" height="1"></rect>
                        <polygon id="Path" fill="#A0616A" points="17.2125 27.5268817 17.2125 29.1654432 18.393699 30.9677419 19.2375 27.6907379"></polygon>
                        <path d="M16.874199,12.3070719 L17.7856217,12.0430108 C17.7856217,12.0430108 19.2076375,12.3070719 19.2076375,13.9982936 C19.2076375,15.6895152 19.5409848,22.454376 19.5409848,22.454376 L19.2076375,26.3441748 C19.2076375,26.3441748 19.707659,26.5132966 19.5409848,27.0206608 C19.3743105,27.5280249 19.0409693,28.7118714 18.8742853,28.5427508 C18.7076014,28.3736302 18.7076111,28.0353866 18.7076111,28.0353866 C18.7076111,28.0353866 16.0408253,28.5427508 16.2074996,28.0353866 C16.3741738,27.5280225 16.3741738,26.3441699 16.5408481,26.3441699 C16.7075224,26.3441699 16.3741738,21.2705197 16.3741738,21.2705197 L16.874199,12.3070719 Z" id="Path" fill="#9CAAD6"></path>
                        <polygon id="Path" fill="#A0616A" points="2.025 26.6666962 4.218768 29.4194172 6.91881839 32.688172 7.7625 28.7312058 6.25405504 28.4897828 4.72505039 26.1505376"></polygon>
                        <path d="M7.46128268,25.8064516 C7.46128268,25.8064516 4.99677984,27.1626539 6.63978213,36.3170236 L7.13268198,45.4713897 L7.46128268,60.5591398 L10.7472873,60.5591398 L11.4044875,45.6409139 L13.3760869,36.1474982 L16.4977911,44.6237625 L15.3476899,59.7115138 L19.7837945,60.3896144 L21.2625,43.4370882 L18.6336968,30.8922159 L16.6620974,27.3321842 L16.2513465,26.3998017 L7.46128268,25.8064516 Z" id="Path" fill="#303D65"></path>
                        <path d="M8.00891628,60.2150538 L7.51251886,61.685061 C7.51251886,61.685061 6.85065684,64.2984102 9.16717572,63.9717414 C11.4836946,63.6450726 10.6563668,62.1750618 10.6563668,62.1750618 L10.490901,60.2150538 L8.00891628,60.2150538 Z" id="Path" fill="#2F2E41"></path>
                        <path d="M15.3561345,59.5326129 C15.3561345,59.5326129 14.85,61.2816974 14.85,62.1562365 C14.85,63.0307756 15.1874246,63.4113133 15.1874246,63.4113133 C15.1874246,63.4113133 24.8040181,64.0802296 24.6353058,63.2056867 C24.4665935,62.3311438 23.4543208,61.9813279 23.4543208,61.9813279 L21.0923508,61.456606 L19.4052276,60.0573386 L16.0309838,59.1827957 L15.3561345,59.5326129 Z" id="Path" fill="#2F2E41"></path>
                        <ellipse id="Oval" fill="#A0616A" cx="11.64375" cy="4.98924731" rx="3.20625" ry="3.2688172"></ellipse>
                        <polygon id="Path" fill="#A0616A" points="14.0063441 6.19354839 14.5125 10.8932658 13.3313065 13.0752688 10.4625188 9.88625308 10.125 7.20068286"></polygon>
                        <path d="M12.9721226,11.0620244 L10.3933067,8.94623656 L9.84808036,9.70488763 L5.7375,11.4013059 L5.90192321,18.8655455 C5.90192321,18.8655455 6.06634643,25.1422927 7.05288452,25.8208592 L6.64182768,26.414606 L16.4250006,26.8387097 L16.4250006,22.2583844 L18.5625,12.4191588 L14.7807696,10.2138159 L14.3101271,9.52699807 L12.9721226,11.0620244 Z" id="Path" fill="#9CAAD6"></path>
                        <path d="M6.24856078,11.8675606 L6.0097769,11.3548387 L5.42887657,11.5277144 C5.42887657,11.5277144 4.28131986,12.0374837 3.46163921,14.2464816 C2.64195857,16.4554795 0.346841584,21.3832458 0.346841584,21.3832458 C0.346841584,21.3832458 -0.308905786,22.2328613 0.182904742,23.0824756 C0.674715269,23.9320899 1.16652461,25.8012428 1.16652461,25.8012428 C1.16652461,25.8012428 0.674715269,25.6313197 1.00258895,26.3110122 C1.33046264,26.9907046 1.33046145,27.6703958 2.3140825,27.5004727 C3.29770356,27.3305495 5.26494329,26.8207815 5.10100645,26.3110122 C4.93706961,25.8012428 4.77313276,24.9516286 4.44525908,24.9516286 C4.11738539,24.9516286 3.62557606,22.4027844 3.62557606,22.4027844 L3.95344855,21.0433996 L6.4125,17.9847874 L6.24856078,11.8675606 Z" id="Path" fill="#9CAAD6"></path>
                        <path d="M12.1868305,2.5023398 C12.1868305,2.5023398 11.6867185,2.5023398 11.6867185,2.33699199 C11.6867185,2.33699199 9.94302173,2.28420713 9.23118339,3.05465989 C8.51934505,3.82511266 8.68604905,2.66768401 8.68604905,2.66768401 C8.68604905,2.66768401 6.85230752,1.84094617 8.35264227,1.01420714 L8.51934505,1.17955494 C8.51934505,1.17955494 8.85275304,0.683511521 10.0196798,0.518164913 L9.8529758,0.352817106 C9.8529758,0.352817106 9.8529758,0.187469299 10.6864958,0.187469299 C11.5200157,0.187469299 13.6871653,-0.639269737 13.8538693,1.17955494 C13.8538693,1.17955494 15.1875,0.683511521 15.1875,2.33698839 C15.1875,3.99046527 15.020796,4.8172043 15.020796,4.8172043 C15.020796,4.8172043 14.687388,3.99046527 14.0205732,4.48650869 C13.3537585,4.98255211 12.1868305,2.5023398 12.1868305,2.5023398 Z" id="Path" fill="#2F2E41"></path>
                    </g>
                </g>
                <g id="Group-5-Copy" transform="translate(0.000000, 4.000000)">
                    <ellipse id="Oval" fill="#303D65" cx="25" cy="61.5" rx="25" ry="2.5"></ellipse>
                    <rect id="Rectangle" fill="#9CAAD6" x="10" y="23" width="30" height="38"></rect>
                    <rect id="Rectangle" fill="#FFFFFF" x="13" y="32" width="22" height="1"></rect>
                    <rect id="Rectangle" fill="#FFFFFF" x="13" y="36" width="22" height="1"></rect>
                    <rect id="Rectangle" fill="#FFFFFF" x="13" y="40" width="22" height="1"></rect>
                    <rect id="Rectangle" fill="#FFFFFF" x="13" y="42" width="22" height="1"></rect>
                    <rect id="Rectangle" fill="#FFFFFF" x="13" y="46" width="22" height="1"></rect>
                    <rect id="Rectangle" fill="#FFFFFF" x="20" y="50" width="11" height="4"></rect>
                    <path d="M32,7.50728039 C31.9964531,11.2410132 29.2466927,14.4034022 25.5495676,14.9256635 C21.8524424,15.4479248 18.3342697,13.1709532 17.2965811,9.58430679 C16.2588925,5.99766038 18.0178166,2.19399932 21.4226936,0.661617209 C24.8275706,-0.870764901 28.8411158,0.334967185 30.8377328,3.49004302 C31.5972232,4.69228855 32.0002328,6.08524324 32,7.50728039 L32,7.50728039 Z" id="Path" fill="#9CAAD6"></path>
                    <path d="M31,3.18275222 L23.2151619,11 C22.725881,10.2392182 20,6.70361994 20,6.70361994 C20.3493396,6.34901397 20.7221275,6.01851063 21.1158186,5.71436639 L23.3762061,8.74132865 L30.0883542,2 C30.4287518,2.36444435 30.7339981,2.76046521 31,3.18275222 L31,3.18275222 Z" id="Path" fill="#FFFFFF"></path>
                </g>
            </g>
        </g>
    </g>
</svg>