<?xml version="1.0" encoding="UTF-8"?>
<svg width="116px" height="80px" viewBox="0 0 116 80" version="1.1" xmlns="http://www.w3.org/2000/svg" xmlns:xlink="http://www.w3.org/1999/xlink">
    <!-- Generator: Sketch 63.1 (92452) - https://sketch.com -->
    <title>Group 12</title>
    <desc>Created with Sketch.</desc>
    <g id="02-Components" stroke="none" stroke-width="1" fill="none" fill-rule="evenodd">
        <g id="Artboard-Copy-7" transform="translate(-692.000000, -838.000000)" fill-rule="nonzero">
            <g id="Group-12" transform="translate(692.000000, 838.000000)">
                <g id="Group-8">
                    <g id="noun_Government_1101452" transform="translate(36.000000, 0.000000)" fill="#E6E6E6">
                        <g id="Group">
                            <path d="M6.93875,34.875 L54.06125,34.875 C54.36625,34.875 54.595,34.65 54.595,34.35 L54.595,31.275 C54.595,30.975 54.36625,30.75 54.06125,30.75 L50.02,30.75 C48.6475,23.4 43.08125,17.55 35.8375,15.525 L35.8375,14.55 C35.8375,14.25 35.60875,14.025 35.30375,14.025 L32.40625,14.025 L32.40625,12.9 C32.40625,12.6 32.1775,12.375 31.8725,12.375 L31.18625,12.375 L31.18625,6.825 L37.21,6.825 C37.6675,6.825 37.9725,6.45 37.9725,6.075 L37.9725,2.325 C37.9725,1.875 37.59125,1.575 37.21,1.575 L31.18625,1.575 L31.18625,0.825 C31.18625,0.6 30.9575,0.375 30.72875,0.375 L30.27125,0.375 C30.0425,0.375 29.81375,0.6 29.81375,0.825 L29.81375,12.375 L29.05125,12.375 C28.74625,12.375 28.5175,12.6 28.5175,12.9 L28.5175,14.025 L25.62,14.025 C25.315,14.025 25.08625,14.25 25.08625,14.55 L25.08625,15.525 C17.8425,17.475 12.3525,23.4 10.90375,30.75 L6.8625,30.75 C6.5575,30.75 6.32875,30.975 6.32875,31.275 L6.32875,34.35 C6.405,34.575 6.63375,34.875 6.93875,34.875 Z" id="Path"></path>
                            <path d="M60.085,67.5 L57.645,67.5 L57.645,63.9 C57.645,63.6 57.41625,63.375 57.11125,63.375 L54.595,63.375 L54.595,36.75 C54.595,36.45 54.36625,36.225 54.06125,36.225 L6.93875,36.225 C6.63375,36.225 6.405,36.45 6.405,36.75 L6.405,63.375 L3.88875,63.375 C3.58375,63.375 3.355,63.6 3.355,63.9 L3.355,67.5 L0.915,67.5 C0.61,67.5 0.38125,67.725 0.38125,68.025 L0.38125,71.1 C0.38125,71.4 0.61,71.625 0.915,71.625 L60.16125,71.625 C60.46625,71.625 60.695,71.4 60.695,71.1 L60.695,68.025 C60.61875,67.725 60.39,67.5 60.085,67.5 Z M28.2125,40.35 L32.86375,40.35 L32.86375,63.45 L28.2125,63.45 L28.2125,40.35 Z M24.01875,63.375 L19.3675,63.375 L19.3675,40.275 L24.01875,40.275 L24.01875,63.375 Z M36.98125,40.35 L41.6325,40.35 L41.6325,63.45 L36.98125,63.45 L36.98125,40.35 Z M45.82625,40.35 L50.4775,40.35 L50.4775,63.45 L45.82625,63.45 L45.82625,40.35 Z M10.59875,40.35 L15.25,40.35 L15.25,63.45 L10.59875,63.45 L10.59875,40.35 Z" id="Shape"></path>
                        </g>
                    </g>
                    <g id="Group-9" transform="translate(84.000000, 14.000000)">
                        <ellipse id="Oval-Copy-2" fill="#303D65" cx="16" cy="62.3939394" rx="16" ry="3"></ellipse>
                        <g id="Group-3-Copy-2" transform="translate(2.000000, 0.000000)">
                            <polygon id="Path" fill="#A0616A" points="17.2125 27.5268817 17.2125 29.1654432 18.393699 30.9677419 19.2375 27.6907379"></polygon>
                            <path d="M16.874199,12.3070719 L17.7856217,12.0430108 C17.7856217,12.0430108 19.2076375,12.3070719 19.2076375,13.9982936 C19.2076375,15.6895152 19.5409848,22.454376 19.5409848,22.454376 L19.2076375,26.3441748 C19.2076375,26.3441748 19.707659,26.5132966 19.5409848,27.0206608 C19.3743105,27.5280249 19.0409693,28.7118714 18.8742853,28.5427508 C18.7076014,28.3736302 18.7076111,28.0353866 18.7076111,28.0353866 C18.7076111,28.0353866 16.0408253,28.5427508 16.2074996,28.0353866 C16.3741738,27.5280225 16.3741738,26.3441699 16.5408481,26.3441699 C16.7075224,26.3441699 16.3741738,21.2705197 16.3741738,21.2705197 L16.874199,12.3070719 Z" id="Path" fill="#9CAAD6"></path>
                            <polygon id="Path" fill="#A0616A" points="2.025 26.6666962 4.218768 29.4194172 6.91881839 32.688172 7.7625 28.7312058 6.25405504 28.4897828 4.72505039 26.1505376"></polygon>
                            <path d="M8.00891628,60.2150538 L7.51251886,61.685061 C7.51251886,61.685061 6.85065684,64.2984102 9.16717572,63.9717414 C11.4836946,63.6450726 10.6563668,62.1750618 10.6563668,62.1750618 L10.490901,60.2150538 L8.00891628,60.2150538 Z" id="Path" fill="#9CAAD6"></path>
                            <path d="M15.3561345,59.5326129 C15.3561345,59.5326129 14.85,61.2816974 14.85,62.1562365 C14.85,63.0307756 15.1874246,63.4113133 15.1874246,63.4113133 C15.1874246,63.4113133 24.8040181,64.0802296 24.6353058,63.2056867 C24.4665935,62.3311438 23.4543208,61.9813279 23.4543208,61.9813279 L21.0923508,61.456606 L19.4052276,60.0573386 L16.0309838,59.1827957 L15.3561345,59.5326129 Z" id="Path" fill="#9CAAD6"></path>
                            <ellipse id="Oval" fill="#A0616A" cx="11.64375" cy="4.98924731" rx="3.20625" ry="3.2688172"></ellipse>
                            <polygon id="Path" fill="#A0616A" points="14.0063441 6.19354839 14.5125 10.8932658 13.3313065 13.0752688 10.4625188 9.88625308 10.125 7.20068286"></polygon>
                            <path d="M12.9721226,11.0620244 L10.3933067,8.94623656 L9.84808036,9.70488763 L5.7375,11.4013059 L5.90192321,18.8655455 C5.90192321,18.8655455 6.06634643,25.1422927 7.05288452,25.8208592 L6.64182768,26.414606 L16.4250006,26.8387097 L16.4250006,22.2583844 L18.5625,12.4191588 L14.7807696,10.2138159 L14.3101271,9.52699807 L12.9721226,11.0620244 Z" id="Path" fill="#9CAAD6"></path>
                            <path d="M6.24856078,11.8675606 L6.0097769,11.3548387 L5.42887657,11.5277144 C5.42887657,11.5277144 4.28131986,12.0374837 3.46163921,14.2464816 C2.64195857,16.4554795 0.346841584,21.3832458 0.346841584,21.3832458 C0.346841584,21.3832458 -0.308905786,22.2328613 0.182904742,23.0824756 C0.674715269,23.9320899 1.16652461,25.8012428 1.16652461,25.8012428 C1.16652461,25.8012428 0.674715269,25.6313197 1.00258895,26.3110122 C1.33046264,26.9907046 1.33046145,27.6703958 2.3140825,27.5004727 C3.29770356,27.3305495 5.26494329,26.8207815 5.10100645,26.3110122 C4.93706961,25.8012428 4.77313276,24.9516286 4.44525908,24.9516286 C4.11738539,24.9516286 3.62557606,22.4027844 3.62557606,22.4027844 L3.95344855,21.0433996 L6.4125,17.9847874 L6.24856078,11.8675606 Z" id="Path" fill="#9CAAD6"></path>
                            <path d="M12.1868305,2.5023398 C12.1868305,2.5023398 11.6867185,2.5023398 11.6867185,2.33699199 C11.6867185,2.33699199 9.94302173,2.28420713 9.23118339,3.05465989 C8.51934505,3.82511266 8.68604905,2.66768401 8.68604905,2.66768401 C8.68604905,2.66768401 6.85230752,1.84094617 8.35264227,1.01420714 L8.51934505,1.17955494 C8.51934505,1.17955494 8.85275304,0.683511521 10.0196798,0.518164913 L9.8529758,0.352817106 C9.8529758,0.352817106 9.8529758,0.187469299 10.6864958,0.187469299 C11.5200157,0.187469299 13.6871653,-0.639269737 13.8538693,1.17955494 C13.8538693,1.17955494 15.1875,0.683511521 15.1875,2.33698839 C15.1875,3.99046527 15.020796,4.8172043 15.020796,4.8172043 C15.020796,4.8172043 14.687388,3.99046527 14.0205732,4.48650869 C13.3537585,4.98255211 12.1868305,2.5023398 12.1868305,2.5023398 Z" id="Path" fill="#2F2E41"></path>
                            <path d="M7.46128268,25.8064516 C7.46128268,25.8064516 4.99677984,27.1626539 6.63978213,36.3170236 L7.13268198,45.4713897 L7.46128268,60.5591398 L10.7472873,60.5591398 L11.4044875,45.6409139 L13.3760869,36.1474982 L16.4977911,44.6237625 L15.3476899,59.7115138 L19.7837945,60.3896144 L21.2625,43.4370882 L18.6336968,30.8922159 L16.6620974,27.3321842 L16.2513465,26.3998017 L7.46128268,25.8064516 Z" id="Path" fill="#303D65"></path>
                        </g>
                    </g>
                    <g id="Group-11" transform="translate(0.500000, 15.000000)">
                        <g id="Group-10">
                            <ellipse id="Oval" fill="#303D65" cx="25" cy="61.5" rx="25" ry="2.5"></ellipse>
                            <rect id="Rectangle" fill="#9CAAD6" x="10" y="23" width="30" height="38"></rect>
                            <rect id="Rectangle" fill="#FFFFFF" x="13" y="32" width="22" height="1"></rect>
                            <rect id="Rectangle" fill="#FFFFFF" x="13" y="36" width="22" height="1"></rect>
                            <rect id="Rectangle" fill="#FFFFFF" x="13" y="42" width="22" height="1"></rect>
                            <rect id="Rectangle" fill="#FFFFFF" x="13" y="46" width="22" height="1"></rect>
                            <rect id="Rectangle" fill="#FFFFFF" x="20" y="50" width="11" height="4"></rect>
                            <path d="M32,7.50728039 C31.9964531,11.2410132 29.2466927,14.4034022 25.5495676,14.9256635 C21.8524424,15.4479248 18.3342697,13.1709532 17.2965811,9.58430679 C16.2588925,5.99766038 18.0178166,2.19399932 21.4226936,0.661617209 C24.8275706,-0.870764901 28.8411158,0.334967185 30.8377328,3.49004302 C31.5972232,4.69228855 32.0002328,6.08524324 32,7.50728039 L32,7.50728039 Z" id="Path" fill="#9CAAD6"></path>
                            <path d="M31,3.18275222 L23.2151619,11 C22.725881,10.2392182 20,6.70361994 20,6.70361994 C20.3493396,6.34901397 20.7221275,6.01851063 21.1158186,5.71436639 L23.3762061,8.74132865 L30.0883542,2 C30.4287518,2.36444435 30.7339981,2.76046521 31,3.18275222 L31,3.18275222 Z" id="Path" fill="#FFFFFF"></path>
                        </g>
                        <rect id="Rectangle" fill="#FFFFFF" x="13" y="40" width="22" height="1"></rect>
                    </g>
                </g>
            </g>
        </g>
    </g>
</svg>