<?xml version="1.0" encoding="UTF-8"?>
<svg width="64px" height="64px" viewBox="0 0 64 64" version="1.1" xmlns="http://www.w3.org/2000/svg" xmlns:xlink="http://www.w3.org/1999/xlink">
    <!-- Generator: Sketch 63.1 (92452) - https://sketch.com -->
    <title>noun_Government_3344886</title>
    <desc>Created with Sketch.</desc>
    <g id="02-Components" stroke="none" stroke-width="1" fill="none" fill-rule="evenodd">
        <g id="Artboard" transform="translate(-910.000000, -429.000000)" fill="#303D65" fill-rule="nonzero">
            <g id="noun_Government_3344886" transform="translate(910.000000, 429.000000)">
                <g id="Group">
                    <path d="M63,64 L1,64 C0.44771525,64 0,63.5522847 0,63 L0,59 C0,58.4477153 0.44771525,58 1,58 L63,58 C63.5522847,58 64,58.4477153 64,59 L64,63 C64,63.5522847 63.5522847,64 63,64 Z M2,62 L62,62 L62,60 L2,60 L2,62 Z" id="Shape"></path>
                    <path d="M46,60 L18,60 C17.4477153,60 17,59.5522847 17,59 L17,41 C17,40.4477153 17.4477153,40 18,40 L46,40 C46.5522847,40 47,40.4477153 47,41 L47,59 C47,59.5522847 46.5522847,60 46,60 Z M19,58 L45,58 L45,42 L19,42 L19,58 Z" id="Shape"></path>
                    <path d="M45.9999998,42 L17.9999998,42 C17.4477153,42 16.9999998,41.5522847 16.9999998,41 L16.9999998,33 C16.9999998,32.5534212 17.2956393,32.1608091 17.725,32.038 L31.725,28.038 C31.9047888,27.9870165 32.0952112,27.9870165 32.275,28.038 L46.275,32.038 C46.7043607,32.1608091 46.9999998,32.5534212 46.9999998,33 L46.9999998,41 C46.9999998,41.5522847 46.5522847,42 45.9999998,42 Z M19,40 L45,40 L45,33.754 L32,30.04 L19,33.754 L19,40 Z" id="Shape"></path>
                    <path d="M45,33 L43,33 L43,26 L21,26 L21,33 L19,33 L19,25 C19,24.4477153 19.4477153,24 20,24 L44,24 C44.5522847,24 45,24.4477153 45,25 L45,33 Z" id="Path"></path>
                    <path d="M42,22 L27,22 L27,20 L41,20 L41,19 C41,14.0294373 36.9705627,10 32,10 C27.0294373,10 23,14.0294373 23,19 L23,20 L25,20 L25,22 L22,22 C21.4477153,22 21,21.5522847 21,21 L21,19 C21,12.9248678 25.9248678,8 32,8 C38.0751322,8 43,12.9248678 43,19 L43,21 C43,21.2652165 42.8946432,21.5195704 42.7071068,21.7071068 C42.5195704,21.8946432 42.2652165,22 42,22 Z" id="Path"></path>
                    <path d="M35,10 L33,10 L33,6 L31,6 L31,10 L29,10 L29,5 C29,4.44771525 29.4477153,4 30,4 L34,4 C34.5522847,4 35,4.44771525 35,5 L35,10 Z" id="Path"></path>
                    <path d="M33.1,5.447 L32,3.236 L30.9,5.447 L29.11,4.553 L31.11,0.553 C31.297968,0.237729394 31.6379475,0.0446094077 32.005,0.0446094077 C32.3720525,0.0446094077 32.712032,0.237729394 32.9,0.553 L34.9,4.553 L33.1,5.447 Z" id="Path"></path>
                    <path d="M62,59 L60,59 L60,42 L46,42 L46,40 L61,40 C61.5522847,40 62,40.4477153 62,41 L62,59 Z" id="Path"></path>
                    <path d="M60.293,41.707 L53.586,35 L46,35 L46,33 L54,33 C54.2651948,33 54.5195073,33.1054506 54.707,33.293 L61.707,40.293 L60.293,41.707 Z" id="Path"></path>
                    <path d="M4,59 L2,59 L2,41 C2,40.4477153 2.44771525,40 3,40 L18,40 L18,42 L4,42 L4,59 Z" id="Path"></path>
                    <path d="M3.707,41.707 L2.293,40.293 L9.293,33.293 C9.48049273,33.1054506 9.73480519,33 10,33 L18,33 L18,35 L10.414,35 L3.707,41.707 Z" id="Path"></path>
                    <path d="M14,52 L8,52 C7.44771525,52 7,51.5522847 7,51 L7,45 C7,44.4477153 7.44771525,44 8,44 L14,44 C14.5522847,44 15,44.4477153 15,45 L15,51 C15,51.5522847 14.5522847,52 14,52 Z M9,50 L13,50 L13,46 L9,46 L9,50 Z" id="Shape"></path>
                    <path d="M56,52 L50,52 C49.4477153,52 49,51.5522847 49,51 L49,45 C49,44.4477153 49.4477153,44 50,44 L56,44 C56.5522847,44 57,44.4477153 57,45 L57,51 C57,51.5522847 56.5522847,52 56,52 Z M51,50 L55,50 L55,46 L51,46 L51,50 Z" id="Shape"></path>
                    <path d="M26,60 L22,60 C21.4477153,60 21,59.5522847 21,59 L21,41 C21,40.4477153 21.4477153,40 22,40 L26,40 C26.5522847,40 27,40.4477153 27,41 L27,59 C27,59.5522847 26.5522847,60 26,60 Z M23,58 L25,58 L25,42 L23,42 L23,58 Z" id="Shape"></path>
                    <path d="M34,60 L30,60 C29.4477153,60 29,59.5522847 29,59 L29,41 C29,40.4477153 29.4477153,40 30,40 L34,40 C34.5522847,40 35,40.4477153 35,41 L35,59 C35,59.5522847 34.5522847,60 34,60 Z M31,58 L33,58 L33,42 L31,42 L31,58 Z" id="Shape"></path>
                    <path d="M42,60 L38,60 C37.4477153,60 37,59.5522847 37,59 L37,41 C37,40.4477153 37.4477153,40 38,40 L42,40 C42.5522847,40 43,40.4477153 43,41 L43,59 C43,59.5522847 42.5522847,60 42,60 Z M39,58 L41,58 L41,42 L39,42 L39,58 Z" id="Shape"></path>
                    <rect id="Rectangle" x="22" y="44" width="4" height="2"></rect>
                    <rect id="Rectangle" x="30" y="44" width="4" height="2"></rect>
                    <rect id="Rectangle" x="38" y="44" width="4" height="2"></rect>
                    <rect id="Rectangle" x="22" y="54" width="4" height="2"></rect>
                    <rect id="Rectangle" x="30" y="54" width="4" height="2"></rect>
                    <rect id="Rectangle" x="38" y="54" width="4" height="2"></rect>
                    <rect id="Rectangle" x="22" y="17" width="17" height="2"></rect>
                    <rect id="Rectangle" x="21" y="21" width="2" height="4"></rect>
                    <rect id="Rectangle" x="41" y="21" width="2" height="4"></rect>
                    <rect id="Rectangle" x="21" y="36" width="2" height="2"></rect>
                    <rect id="Rectangle" x="25" y="36" width="18" height="2"></rect>
                </g>
            </g>
        </g>
    </g>
</svg>