<?xml version="1.0" encoding="UTF-8"?>
<svg width="37px" height="36px" viewBox="0 0 37 36" version="1.1" xmlns="http://www.w3.org/2000/svg" xmlns:xlink="http://www.w3.org/1999/xlink">
    <!-- Generator: Sketch 63.1 (92452) - https://sketch.com -->
    <title>LinkedIn_logo_In-Black</title>
    <desc>Created with Sketch.</desc>
    <g id="02-Components" stroke="none" stroke-width="1" fill="none" fill-rule="evenodd">
        <g id="Artboard" transform="translate(-660.000000, -974.000000)" fill="#303D65" fill-rule="nonzero">
            <g id="LinkedIn_logo_In-Black" transform="translate(660.000000, 974.000000)">
                <path d="M33.3,0 L2.7,0 C1.2,0 0,1.2 0,2.6 L0,33.4 C0,34.8 1.2,36 2.7,36 L33.4,36 C34.9,36 36.1,34.8 36.1,33.4 L36.1,2.6 C36,1.2 34.8,0 33.3,0 Z M10.7,30.7 L5.3,30.7 L5.3,13.5 L10.6,13.5 L10.6,30.7 L10.7,30.7 Z M8,11.1 C6.3,11.1 4.9,9.7 4.9,8 C4.9,6.3 6.3,5 8,5 C9.7,5 11.1,6.4 11.1,8.1 C11.1,9.8 9.7,11.1 8,11.1 Z M30.7,30.7 L25.4,30.7 L25.4,22.3 C25.4,20.3 25.4,17.7 22.6,17.7 C19.8,17.7 19.4,19.9 19.4,22.1 L19.4,30.6 L14,30.6 L14,13.5 L19.1,13.5 L19.1,15.8 L19.2,15.8 C19.9,14.4 21.7,13 24.3,13 C29.7,13 30.7,16.6 30.7,21.2 L30.7,30.7 Z" id="path2"></path>
            </g>
        </g>
    </g>
</svg>