<?xml version="1.0" encoding="UTF-8"?>
<svg width="224px" height="179px" viewBox="0 0 224 179" version="1.1" xmlns="http://www.w3.org/2000/svg" xmlns:xlink="http://www.w3.org/1999/xlink">
    <!-- Generator: Sketch 63.1 (92452) - https://sketch.com -->
    <title>undraw_science_fqhl</title>
    <desc>Created with Sketch.</desc>
    <defs>
        <linearGradient x1="49.9749693%" y1="99.99111%" x2="49.9749693%" y2="-0.00011368275%" id="linearGradient-1">
            <stop stop-color="#808080" stop-opacity="0.25" offset="0%"></stop>
            <stop stop-color="#808080" stop-opacity="0.12" offset="54%"></stop>
            <stop stop-color="#808080" stop-opacity="0.1" offset="100%"></stop>
        </linearGradient>
    </defs>
    <g id="02-Components" stroke="none" stroke-width="1" fill="none" fill-rule="evenodd">
        <g id="Artboard" transform="translate(-70.000000, -418.000000)" fill-rule="nonzero">
            <g id="undraw_science_fqhl" transform="translate(70.000000, 418.000000)">
                <path d="M13.5309349,169.296296 C13.5309349,169.296296 3.9764142,168.719905 5.10207101,175.417337 C5.10207101,175.417337 4.8760355,176.599503 5.94970414,177.137467 C5.94970414,177.137467 5.96778698,176.640189 6.93069822,176.809716 C7.27333194,176.867422 7.62161907,176.884116 7.96820118,176.859444 C8.43738698,176.827377 8.88334227,176.643281 9.23852071,176.335041 L9.23852071,176.335041 C9.23852071,176.335041 11.9238225,175.225207 12.9703669,170.835598 C12.9703669,170.835598 13.7434083,169.877207 13.7117633,169.630828 L12.1001302,170.308935 C12.1001302,170.308935 12.6493964,171.473018 12.2176686,172.438189 C12.2176686,172.438189 12.1634201,170.351882 11.8537515,170.40387 C11.7904615,170.415172 11.0174201,170.808473 11.0174201,170.808473 C11.0174201,170.808473 11.9645089,172.842793 11.2434556,174.307503 C11.2434556,174.307503 11.5146982,171.809811 10.7145325,170.953136 L9.58435503,171.61768 C9.58435503,171.61768 10.6941893,173.710769 9.94149112,175.417337 C9.94149112,175.417337 10.1336213,172.797586 9.34701775,171.778166 L8.31855621,172.580592 C8.31855621,172.580592 9.35831953,174.644296 8.72315976,176.059278 C8.72315976,176.059278 8.64178698,173.010059 8.09478107,172.779503 C8.09478107,172.779503 7.19063905,173.572888 7.05727811,173.90968 C7.05727811,173.90968 7.7715503,175.406036 7.32852071,176.19716 C7.32852071,176.19716 7.05727811,174.16284 6.83576331,174.16284 C6.83576331,174.16284 5.9316213,175.507751 5.84572781,176.423195 C5.84572781,176.423195 5.88415385,175.048899 6.61650888,174.024959 C6.09956204,174.122177 5.62250781,174.368957 5.24447337,174.73471 C5.24447337,174.73471 5.38461538,173.783101 6.83802367,173.699467 C6.83802367,173.699467 7.57942012,172.680047 7.77833136,172.616757 C7.77833136,172.616757 6.33170414,172.496959 5.45468639,172.88574 C5.45468639,172.88574 6.22546746,171.981598 8.0427929,172.395243 L9.05995266,171.565692 C9.05995266,171.565692 7.15447337,171.305751 6.34752663,171.592817 C6.34752663,171.592817 7.27653254,170.799432 9.33345562,171.378083 L10.4387692,170.718059 C10.4387692,170.718059 8.81357396,170.367704 7.84614201,170.492024 C7.84614201,170.492024 8.86782249,169.940497 10.762,170.537231 L11.5531243,170.182355 C11.5531243,170.182355 10.3619172,169.95632 10.0138225,169.911112 C9.66572781,169.865905 9.64764497,169.777751 9.64764497,169.777751 C10.4014574,169.652075 11.1753608,169.738151 11.8831361,170.026391 C11.8831361,170.026391 13.5603195,169.402533 13.5309349,169.296296 Z" id="Path" fill="#303D65"></path>
                <ellipse id="Oval" fill="#6C63FF" opacity="0.1" cx="6.94878107" cy="177.720639" rx="6.76298225" ry="1.14373964"></ellipse>
                <path d="M223.321266,154.086367 C223.321266,154.086367 217.93258,153.760876 218.574521,157.535669 C218.506985,157.92923 218.700407,158.321547 219.053716,158.507621 C219.053716,158.507621 219.053716,158.227337 219.605243,158.322272 C219.798668,158.354049 219.99514,158.363152 220.190675,158.349396 C220.455121,158.331987 220.70668,158.228824 220.907207,158.05555 L220.907207,158.05555 C220.907207,158.05555 222.421645,157.429432 223.011598,154.954343 C223.011598,154.954343 223.445586,154.414118 223.429763,154.276237 L222.525621,154.665018 C222.525621,154.665018 222.83529,155.320521 222.591172,155.867527 C222.591172,155.867527 222.561787,154.689882 222.38774,154.717006 C222.351574,154.717006 221.913065,154.943041 221.913065,154.943041 C221.913065,154.943041 222.448769,156.073219 222.046426,156.914071 C222.046426,156.914071 222.19787,155.50813 221.748059,155.024414 L221.106118,155.397373 C221.106118,155.397373 221.732237,156.579538 221.30729,157.54245 C221.30729,157.54245 221.418047,156.064178 220.972757,155.490047 L220.391846,155.942118 C220.391846,155.942118 220.979538,157.103941 220.617882,157.904107 C220.617882,157.904107 220.570414,156.183976 220.263006,156.055136 C220.042911,156.240727 219.846311,156.452508 219.677574,156.685775 C219.677574,156.685775 220.079917,157.528888 219.831278,157.976438 C219.831278,157.976438 219.677574,156.830438 219.550994,156.825917 C219.550994,156.825917 219.046935,157.583136 218.994947,158.103018 C219.018174,157.620711 219.167843,157.152995 219.428935,156.746805 C219.137355,156.802153 218.868508,156.942079 218.655893,157.149148 C218.655893,157.149148 218.735006,156.611183 219.560036,156.563716 C219.560036,156.563716 219.978201,155.989586 220.091219,155.95342 C220.091219,155.95342 219.275231,155.885609 218.780213,156.104864 C218.780213,156.104864 219.216462,155.598544 220.240402,155.829101 L220.812272,155.361207 C220.812272,155.361207 219.738604,155.214284 219.284272,155.37703 C219.284272,155.37703 219.808675,154.924959 220.965976,155.25497 L221.589834,154.882012 C221.110614,154.777035 220.619714,154.73524 220.129645,154.757692 C220.129645,154.757692 220.703775,154.445763 221.772923,154.782556 L222.224994,154.581385 C222.224994,154.581385 221.546888,154.450284 221.359278,154.429941 C221.171669,154.409598 221.151325,154.355349 221.151325,154.355349 C221.576624,154.284607 222.013207,154.333116 222.412604,154.495491 C222.412604,154.495491 223.337089,154.145136 223.321266,154.086367 Z" id="Path" fill="#303D65"></path>
                <ellipse id="Oval" fill="#9CAAD6" opacity="0.1" cx="219.609763" cy="158.835373" rx="3.81321893" ry="1"></ellipse>
                <path d="M212.241006,164.364201 C212.241006,164.364201 205.735704,163.97316 206.513266,168.534556 C206.432209,169.00958 206.665671,169.482888 207.091917,169.70768 C207.091917,169.70768 207.091917,169.368627 207.770024,169.481645 C208.003657,169.521127 208.241176,169.53251 208.477515,169.51555 C208.796452,169.493314 209.099509,169.367966 209.34097,169.158414 L209.34097,169.158414 C209.34097,169.158414 211.169598,168.403456 211.879349,165.415266 C211.879349,165.415266 212.406012,164.762024 212.385669,164.594757 L211.287136,165.064911 C211.287136,165.064911 211.662355,165.856036 211.368509,166.513799 C211.368509,166.513799 211.332343,165.092036 211.12213,165.125941 C211.079183,165.125941 210.55026,165.399444 210.55026,165.399444 C210.55026,165.399444 211.196722,166.780521 210.708485,167.781858 C210.708485,167.781858 210.893834,166.082071 210.349089,165.50116 L209.576047,165.953231 C209.576047,165.953231 210.331006,167.379515 209.820166,168.541337 C209.820166,168.541337 209.951266,166.757917 209.413302,166.054947 L208.714852,166.599692 C208.714852,166.599692 209.422343,168.005633 208.990615,168.968544 C208.990615,168.968544 208.934107,166.893538 208.561148,166.737574 C208.561148,166.737574 207.948592,167.275538 207.855917,167.499314 C207.855917,167.499314 208.341893,168.518734 208.041266,169.056698 C208.041266,169.056698 207.855917,167.673361 207.704473,167.66658 C207.704473,167.66658 207.094178,168.582024 207.026367,169.210402 C207.056832,168.629833 207.238375,168.067283 207.55303,167.578426 C207.200667,167.645142 206.875439,167.813255 206.617243,168.062142 C206.617243,168.062142 206.712178,167.41568 207.702213,167.359172 C207.702213,167.359172 208.206272,166.662982 208.341893,166.620036 C208.341893,166.620036 207.356379,166.538663 206.759645,166.803124 C206.759645,166.803124 207.286308,166.192828 208.522722,166.470852 L209.214391,165.905763 C209.214391,165.905763 207.916947,165.727195 207.36768,165.923846 C207.36768,165.923846 208.00058,165.383621 209.402,165.776923 L210.154698,165.324852 C210.154698,165.324852 209.049385,165.087515 208.391621,165.173408 C208.391621,165.173408 209.08555,164.798189 210.376213,165.205053 L210.914178,164.963195 C210.914178,164.963195 210.10271,164.80271 209.867633,164.777846 C209.632556,164.752982 209.616734,164.687432 209.616734,164.687432 C210.129724,164.602068 210.656341,164.660754 211.137953,164.856959 C211.137953,164.856959 212.259089,164.436533 212.241006,164.364201 Z" id="Path" fill="#303D65"></path>
                <ellipse id="Oval" fill="#9CAAD6" opacity="0.1" cx="207.758722" cy="170.098722" rx="4.6043432" ry="1"></ellipse>
                <ellipse id="Oval" fill="#9CAAD6" opacity="0.1" cx="182.255136" cy="165.080734" rx="20.869858" ry="3.2571716"></ellipse>
                <ellipse id="Oval" fill="#9CAAD6" opacity="0.1" cx="116.214343" cy="174.461207" rx="23.4511834" ry="2.35302959"></ellipse>
                <ellipse id="Oval" fill="#9CAAD6" opacity="0.1" cx="45.1646036" cy="173.378497" rx="17.8002959" ry="1.09853254"></ellipse>
                <path d="M76.7688876,8.62573964 C83.3713846,2.74881657 93.7373728,1.54404734 103.169834,2.01194083 C132.800828,3.48343195 159.547609,17.7892189 182.684604,33.9711006 C191.061479,39.8276805 199.307254,46.1408521 204.743408,54.2080592 C215.819148,70.6272781 212.528071,93.3754911 197.139574,106.903716 C191.902331,111.505799 185.555254,115.040994 179.038651,118.162544 C167.452071,123.725278 154.950047,128.189479 141.801562,129.46432 C132.423349,130.368462 122.929858,129.633846 113.608154,128.368047 C87.5598225,124.832852 61.9929467,117.021065 40.5647811,103.662367 C31.1662249,97.7854438 22.3056331,90.5071006 18.4313846,81.0249112 C14.5571361,71.5427219 17.0367456,59.5266746 26.634213,53.914213 C30.6033964,51.5928284 35.350142,50.5440237 39.9951716,49.5607692 C46.8350059,48.1118817 53.7833373,46.6833373 59.9563669,43.7358343 C66.330568,40.6933964 73.8778935,34.8096923 72.614355,28.0760947 C71.2626627,20.8497396 70.175432,14.5026627 76.7688876,8.62573964 Z" id="Path" fill="#9CAAD6" opacity="0.1"></path>
                <path d="M131.480781,89.440213 L131.480781,46.2809941 L137.357704,46.2809941 L137.357704,33.3969704 L95.2472899,33.3969704 L95.2472899,46.2809941 L101.124213,46.2809941 L101.124213,89.440213 C84.5077663,95.7511177 73.5200985,111.67397 73.5162367,129.448497 C73.5162367,153.080509 92.6750059,172.237018 116.307018,172.237018 C139.93903,172.237018 159.095538,153.080509 159.095538,129.448497 C159.091254,111.672058 148.100315,95.7483752 131.480781,89.440213 Z" id="Path" fill="#96B7FE" opacity="0.9"></path>
                <rect id="Rectangle" fill="#000000" opacity="0.1" x="101.115172" y="46.1476331" width="30.3656095" height="1"></rect>
                <path d="M92.3653373,128.300237 C92.3653373,128.300237 118.133385,127.848166 131.017408,121.399373 C143.901432,114.95058 151.263408,120.707704 150.57174,124.620379 C149.880071,128.533053 146.202473,136.121065 131.478521,137.052331 C116.754568,137.983598 92.3653373,128.300237 92.3653373,128.300237 Z" id="Path" fill="#9CAAD6"></path>
                <path d="M92.3653373,128.300237 C92.3653373,128.300237 118.133385,127.848166 131.017408,121.399373 C134.273479,119.769624 137.176867,118.919444 139.686709,118.62205 C147.108121,117.742677 151.088609,121.696521 150.57174,124.620379 C149.880071,128.533053 146.202473,136.121065 131.478521,137.052331 C116.754568,137.983598 92.3653373,128.300237 92.3653373,128.300237 Z" id="Path" fill="#9CAAD6" opacity="0.1"></path>
                <path d="M81.330284,124.163787 C81.330284,124.163787 78.5771716,162.352485 114.686343,163.041893 C150.795515,163.731302 150.574016,124.615858 150.574016,124.615858 C150.574016,124.615858 137.237905,139.106994 105.714994,127.145195 C105.714994,127.154237 89.3816686,122.78271 81.330284,124.163787 Z" id="Path" fill="#303D65"></path>
                <path d="M150.456462,124.75374 C149.735408,133.551041 145.058734,161.088947 114.699905,160.508036 C84.940071,159.945207 81.5698817,133.928521 81.3054201,124.776343 C81.1404142,129.688095 81.2873373,162.399953 114.693124,163.039633 C150.811337,163.71774 150.5808,124.613598 150.5808,124.613598 C150.5808,124.613598 150.535574,124.670107 150.456462,124.75374 Z" id="Path" fill="#000000" opacity="0.1"></path>
                <circle id="Oval" fill="#9CAAD6" opacity="0.3" cx="114.905598" cy="107.685799" r="4.68571598"></circle>
                <circle id="Oval" fill="#9CAAD6" opacity="0.3" cx="117.581858" cy="88.9406746" r="2.9000355"></circle>
                <circle id="Oval" fill="#9CAAD6" opacity="0.3" cx="111.110462" cy="72.2027456" r="2.9000355"></circle>
                <path d="M86.2623787,111.300107 C86.0137396,113.275657 86.0634675,115.748485 87.8288047,116.67071 C86.3482722,115.897669 92.4173254,107.132012 91.5561302,105.341811 C89.7139408,101.521811 86.4884142,109.464698 86.2623787,111.300107 Z" id="Path" fill="#FFFFFF" opacity="0.2"></path>
                <circle id="Oval" fill="#9CAAD6" opacity="0.3" cx="108.766473" cy="20.0993018" r="4.68571598"></circle>
                <circle id="Oval" fill="#9CAAD6" opacity="0.3" cx="122.823621" cy="12.066" r="3.4832071"></circle>
                <circle id="Oval" fill="#9CAAD6" opacity="0.3" cx="112.783124" cy="2.69456805" r="1.81054438"></circle>
                <path d="M64.3369349,60.3720473 L26.4692071,60.3720473 L26.4692071,71.6037515 L32.2398935,71.6037515 L32.2398935,159.228675 C32.1777228,163.973342 34.6733551,168.384444 38.7723094,170.774906 C42.8712637,173.165369 47.9393991,173.165369 52.0383533,170.774906 C56.1373076,168.384444 58.6329399,163.973342 58.5707692,159.228675 L58.5707692,71.6037515 L64.3369349,71.6037515 L64.3369349,60.3720473 Z" id="Path" fill="#96B7FE" opacity="0.9"></path>
                <path d="M41.0123314,91.4564497 C41.0123314,91.4564497 50.3837633,88.1088639 52.992213,90.4890178 C52.992213,90.4890178 49.1970769,96.067574 45.702568,95.8437988 C42.2080592,95.6200237 41.0123314,91.4564497 41.0123314,91.4564497 Z" id="Path" fill="#9CAAD6"></path>
                <path d="M41.0123314,91.4564497 C41.0123314,91.4564497 50.3837633,88.1088639 52.992213,90.4890178 C52.992213,90.4890178 49.1970769,96.067574 45.702568,95.8437988 C42.2080592,95.6200237 41.0123314,91.4564497 41.0123314,91.4564497 Z" id="Path" fill="#000000" opacity="0.1"></path>
                <path d="M52.9876923,90.4980592 L52.9876923,154.095408 C52.9876923,156.225972 52.141329,158.269274 50.6347927,159.77581 C49.1282564,161.282347 47.0849546,162.12871 44.9543905,162.12871 L44.9543905,162.12871 C40.5177205,162.12871 36.9210888,158.532078 36.9210888,154.095408 L36.9210888,90.4980592 C36.9210888,90.4980592 40.7885562,89.4560355 44.4322485,91.6892663 C48.0759408,93.922497 52.9876923,90.4980592 52.9876923,90.4980592 Z" id="Path" fill="#303D65"></path>
                <rect id="Rectangle" fill="#000000" opacity="0.1" x="32.2353728" y="71.5336805" width="26.3308757" height="1"></rect>
                <path d="M44.9543905,158.261243 L44.9543905,158.261243 C42.8234347,158.261243 40.7797904,157.414569 39.2731891,155.907544 C37.7665878,154.400519 36.9204892,152.356636 36.9210884,150.22568 L36.9210884,154.242331 C36.9210884,158.679001 40.5177205,162.275633 44.9543905,162.275633 L44.9543905,162.275633 C49.3910606,162.275633 52.9876926,158.679001 52.9876926,154.242331 L52.9876926,150.22568 C52.9882919,152.356636 52.1421933,154.400519 50.635592,155.907544 C49.1289907,157.414569 47.0853463,158.261243 44.9543905,158.261243 Z" id="Path" fill="#000000" opacity="0.1"></path>
                <circle id="Oval" fill="#6C63FF" opacity="0.3" cx="44.9566509" cy="82.6162012" r="1.63649704"></circle>
                <circle id="Oval" fill="#6C63FF" opacity="0.3" cx="50.311432" cy="76.8138698" r="1.04202367"></circle>
                <circle id="Oval" fill="#6C63FF" opacity="0.3" cx="43.021787" cy="74.7320828" r="1.04202367"></circle>
                <path d="M34.274213,103.49058 C34.025574,105.46613 34.0753018,107.938959 35.8406391,108.861183 C34.3578462,108.088142 40.4291598,99.3247456 39.5679645,97.532284 C37.7212544,93.7168047 34.5002485,101.657432 34.274213,103.49058 Z" id="Path" fill="#FFFFFF" opacity="0.2"></path>
                <circle id="Oval" fill="#9CAAD6" opacity="0.3" cx="48.3517041" cy="49.3686391" r="3.9759645"></circle>
                <circle id="Oval" fill="#9CAAD6" opacity="0.3" cx="36.4238107" cy="42.5514083" r="2.95654438"></circle>
                <circle id="Oval" fill="#9CAAD6" opacity="0.3" cx="44.9430888" cy="34.5994793" r="1.53704142"></circle>
                <path d="M202.681964,102.898367 C202.681964,102.898367 199.21232,85.6428166 200.539148,83.4954793 C200.539148,83.4954793 200.586615,81.4995858 200.507503,78.9566864 C200.507503,78.8594911 200.507503,78.7622959 200.507503,78.6628402 C200.739848,78.8213838 200.98306,78.9633833 201.235337,79.087787 C202.458265,79.718468 203.86372,79.9000492 205.206781,79.6008876 L204.151195,78.4300237 C203.900296,78.1497396 203.635834,77.8491124 203.581586,77.4784142 C203.567142,77.1218518 203.645,76.7675996 203.807621,76.4499527 C204.804438,73.9296568 204.865467,70.7583787 202.935124,68.8348166 C201.312189,67.2164024 200.914367,65.1278343 199.160331,63.6518225 C197.871929,62.5691124 197.164438,60.9823432 196.495373,59.4520828 C195.930284,58.1546391 195.365195,56.8481538 195.037444,55.473858 C194.784284,54.4001893 194.684828,53.290355 194.336734,52.2415503 C193.988639,51.1927456 193.342178,50.1733254 192.327278,49.705432 C191.950896,49.5739384 191.585785,49.4121707 191.235527,49.221716 C190.801538,48.9301302 190.541598,48.4554556 190.229669,48.0418107 C188.64742,45.9374201 183.312982,47.1760947 180.790426,48.0305089 C180.105436,48.2453427 179.471076,48.5967395 178.925633,49.0634911 L178.948237,49.0250651 L179.011527,48.9323905 C178.736218,49.155528 178.498165,49.4210483 178.306296,49.7189941 C177.937858,50.3021657 177.784154,50.9870533 177.479006,51.6018698 C177.108308,52.347787 175.051385,54.429574 175.935183,55.2681657 C175.995884,55.3242989 176.065368,55.3701123 176.140876,55.403787 C176.470845,55.5385183 176.832813,55.5746366 177.182899,55.5077633 C177.169337,55.5371479 177.155775,55.5665325 177.144473,55.5959172 C176.844156,56.3360809 176.690617,57.1275756 176.692402,57.9263432 C176.723475,61.4084352 179.570941,64.2063182 183.053041,64.1762249 C183.713972,64.1772385 184.371127,64.0766068 185.001467,63.877858 C185.01729,63.9569704 185.030852,64.0360828 185.044414,64.1151953 C185.044414,64.1491006 185.044414,64.1807456 185.060237,64.2123905 L185.060237,64.2123905 L184.949479,64.368355 L184.931396,64.3389704 L181.633538,68.9500947 C181.129479,69.3027101 178.224923,71.4048402 178.068959,72.9803077 C177.897172,74.7049586 177.725385,76.725716 177.725385,76.725716 L177.702781,77.1574438 C177.411411,77.4007271 177.02838,77.5047401 176.653976,77.4422485 C175.625515,77.2727219 175.625515,81.2306036 175.625515,81.2306036 C175.625515,81.2306036 174.947408,81.8612426 174.470473,81.3142367 C173.993538,80.7672308 172.757124,82.6184615 172.757124,82.6184615 L164.96116,82.9552544 L164.96116,82.9552544 L164.782592,82.9552544 L164.362166,81.6532899 C164.266521,81.3737804 163.966925,81.2199878 163.684059,81.3051953 C163.651022,81.3142518 163.61916,81.3271485 163.589124,81.3436213 L163.562,81.3617041 C163.54267,81.3726542 163.524495,81.3855282 163.507751,81.4001302 C163.496968,81.407173 163.487097,81.4155246 163.478367,81.4249941 C163.462941,81.4381541 163.44858,81.4525145 163.43542,81.4679408 C163.427345,81.4773074 163.419798,81.4871176 163.412817,81.4973254 L163.399254,81.5108876 L163.399254,81.5108876 C163.300857,81.6466873 163.272367,81.8209786 163.322402,81.9810414 L163.684059,83.0976568 C162.180923,83.4005444 160.641621,84.2526982 161.896118,86.6034675 L155.54,85.4303432 L157.596923,87.1549941 L168.220592,89.3475385 C168.08045,89.6006982 168.173124,89.9646154 168.611633,90.477716 C170.49903,92.6973846 173.948331,93.2986391 175.333929,93.4568639 C175.697969,94.2731768 176.152915,95.0458274 176.690142,95.7601657 L176.568083,97.9707929 C176.568083,97.9707929 173.060012,114.830781 172.415811,115.687456 C172.734196,115.317431 173.025052,114.924586 173.286047,114.512071 C172.266627,117.977195 170.842604,122.71942 170.469645,123.429172 C169.868391,124.559349 169.312343,129.152391 169.997231,129.448497 C170.211964,129.538911 170.806438,129.495964 171.663112,129.430414 L171.663112,129.810154 L171.624686,144.219917 C171.624686,144.219917 171.796473,153.060166 171.324059,153.901018 C170.851645,154.74187 170.725065,156.509467 170.725065,156.509467 C170.725065,156.509467 168.830888,159.997195 167.334533,161.398615 L167.300627,161.428 L167.25316,161.097988 C167.25316,161.097988 165.444876,163.371905 161.471172,163.245325 C161.471172,163.245325 159.072935,164.80271 162.628473,164.886343 C166.184012,164.969976 170.722805,164.759763 170.722805,164.759763 C170.722805,164.759763 173.887302,159.920343 176.54774,160.550982 L176.54774,164.212757 L177.361467,164.212757 L177.361467,160.519337 C178.123718,160.016536 178.646566,159.223278 178.808095,158.324533 C178.950885,157.394168 178.590581,156.457722 177.861006,155.863006 C177.535013,155.567711 177.346653,155.150043 177.341124,154.710225 L177.31174,154.735089 C177.31174,154.662757 177.293657,154.588166 177.282355,154.509053 C177.05632,152.614876 176.760213,148.718024 177.790935,145.82929 C179.203657,141.871408 179.633124,136.360663 178.604663,133.076367 C178.273466,132.02792 178.00179,130.961592 177.790935,129.882485 C177.766071,129.744604 177.741207,129.615763 177.720864,129.493704 C178.424991,129.589757 179.121961,129.732474 179.807172,129.920911 C182.194107,130.576414 187.408746,130.698473 191.861645,130.664568 C191.872947,130.786627 191.886509,130.913207 191.900071,131.042047 C191.981652,131.930293 192.149715,132.808458 192.40187,133.664059 C192.957917,135.350284 193.215598,142.755207 193.215598,142.755207 C193.215598,142.755207 193.936651,148.846864 193.543349,151.328734 C193.317314,152.70755 193.127444,154.090888 193.003124,155.481006 L193.003124,155.50813 C193.003124,155.50813 191.823219,158.873799 190.968805,160.706947 C190.946201,160.754414 190.925858,160.799621 190.903254,160.844828 C190.672076,160.865983 190.444351,160.915324 190.225148,160.991751 C190.225148,160.991751 189.070107,163.306355 187.912805,163.686095 C186.755503,164.065834 187.142024,165.327112 189.754994,164.86374 C192.367964,164.400367 196.310024,164.022888 196.310024,164.022888 L196.481811,161.665337 L197.284237,160.66174 L197.080805,163.012509 L197.937479,162.845243 L197.824462,159.983633 L199.137728,158.340355 C199.137728,158.340355 200.719976,156.929893 198.366947,154.154178 L198.366947,154.212947 C198.342083,154.17226 198.317219,154.131574 198.290095,154.093148 L198.290095,154.079586 C197.901314,153.473811 197.589385,152.345893 198.158994,150.343219 C199.187456,146.726651 199.78645,143.442355 199.78645,143.442355 C199.78645,143.442355 202.085231,134.647314 199.320817,130.48374 L199.445136,130.48374 C199.161549,129.898029 198.960717,129.275756 198.848402,128.634769 C198.83484,128.557917 198.823538,128.478805 198.809976,128.408734 C200.844296,128.291195 202.862793,127.920497 204.49703,127.124852 C204.478947,127.099988 203.495692,106.223349 202.681964,102.898367 Z M176.726308,88.3416805 L176.726308,88.3823669 L176.303621,88.4027101 L176.726308,88.3416805 Z M175.286462,88.5405917 C175.216944,88.5553852 175.151894,88.5863613 175.096592,88.6310059 C174.916379,88.8868408 174.80294,89.1836465 174.76658,89.4944615 L174.111077,89.3452781 C174.111077,89.3452781 173.659006,89.2480828 172.980899,89.1395858 L172.66671,88.8253964 C173.539207,88.7440237 174.434308,88.6468284 175.286462,88.5405917 L175.286462,88.5405917 Z" id="Shape" fill="url(#linearGradient-1)"></path>
                <polygon id="Path" fill="#1D2366" points="196.974568 160.003976 196.723669 162.983124 197.56226 162.813598 197.43568 159.585811"></polygon>
                <path d="M177.849704,145.869976 C176.839325,148.747408 177.128651,152.632959 177.354686,154.520355 C177.43832,155.218805 177.515172,155.650533 177.515172,155.650533 C177.515172,155.650533 176.005254,159.090793 175.878675,159.217373 C175.752095,159.343953 171.430296,161.979527 171.430296,161.979527 L168.410462,163.740343 C168.410462,163.740343 165.34768,162.397692 166.828213,161.932059 C167.127928,161.811395 167.397858,161.627071 167.619337,161.391834 C169.084047,159.994935 170.939799,156.520769 170.939799,156.520769 C170.939799,156.520769 171.064118,154.759953 171.525231,153.921361 C171.986343,153.082769 171.819077,144.274166 171.819077,144.274166 L171.857503,129.91187 L171.857503,128.040296 L177.603325,128.083243 C177.640401,128.719059 177.723498,129.351354 177.851964,129.97516 C178.058936,131.050154 178.326078,132.112685 178.65213,133.15774 C179.651207,136.437515 179.233041,141.925657 177.849704,145.869976 Z" id="Path" fill="#FFB0B1"></path>
                <path d="M177.512911,155.650533 C177.512911,155.650533 176.002994,159.090793 175.876414,159.217373 C175.749834,159.343953 171.430296,161.979527 171.430296,161.979527 L168.410462,163.740343 C168.410462,163.740343 165.34768,162.397692 166.828213,161.932059 C167.127928,161.811395 167.397858,161.627071 167.619337,161.391834 L167.750438,162.309538 L168.758556,162.266592 L177.354686,154.520355 C177.436059,155.216544 177.512911,155.650533 177.512911,155.650533 Z" id="Path" fill="#000000" opacity="0.1"></path>
                <path d="M177.408935,154.719266 L168.747254,162.522012 L167.739136,162.562698 L167.531183,161.095728 C167.531183,161.095728 165.768107,163.356083 161.866734,163.234024 C161.866734,163.234024 159.518225,164.786888 162.996911,164.870521 C166.475598,164.954154 170.926237,164.743941 170.926237,164.743941 C170.926237,164.743941 174.029704,159.920343 176.629112,160.550982 L176.629112,164.199195 L177.427018,164.199195 L177.427018,160.508036 C178.176971,160.002852 178.68809,159.213312 178.842,158.322272 C178.983365,157.398287 178.631983,156.467554 177.915254,155.867527 C177.59542,155.570927 177.412217,155.155448 177.408935,154.719266 L177.408935,154.719266 Z" id="Path" fill="#303D65"></path>
                <path d="M197.772473,150.356781 C197.214166,152.352675 197.519314,153.476071 197.899053,154.079586 L197.899053,154.093148 C198.392905,154.840044 198.736123,155.676206 198.909432,156.554675 L198.945598,156.744544 L195.003538,162.490367 L192.865243,163.328959 C192.865243,163.328959 189.424982,162.155834 190.053361,161.819041 C190.211586,161.735408 190.457964,161.30142 190.731467,160.688864 C191.57458,158.88058 192.731882,155.521692 192.731882,155.521692 L192.731882,155.492308 C192.85168,154.10671 193.046071,152.727893 193.260805,151.353598 C193.645065,148.88303 192.939834,142.811716 192.939834,142.811716 C192.939834,142.811716 192.688935,135.431657 192.141929,133.752213 C191.895996,132.898734 191.731758,132.023808 191.651432,131.139243 C191.538414,130.083657 191.51355,129.222462 191.51355,129.222462 C191.51355,129.222462 193.773905,126.076047 197.930698,129.473361 C198.261398,129.74608 198.552737,130.063282 198.796414,130.415929 C201.664805,134.484568 199.356982,143.483041 199.356982,143.483041 C199.356982,143.483041 198.778331,146.751515 197.772473,150.356781 Z" id="Path" fill="#FFB0B1"></path>
                <path d="M198.945598,156.733243 L195.003538,162.479065 L192.865243,163.317657 C192.865243,163.317657 189.424982,162.144533 190.053361,161.80774 C190.211586,161.724107 190.457964,161.290118 190.731467,160.677562 C192.187136,160.677562 192.942095,162.051858 192.942095,162.051858 L194.786544,161.760272 C194.786544,161.760272 197.220947,156.977361 197.765692,156.685775 C198.310438,156.394189 197.849325,154.502272 197.849325,154.502272 L197.849325,154.020817 L197.892272,154.072805 L197.892272,154.086367 C198.389327,154.834782 198.734893,155.673354 198.909432,156.554675 L198.945598,156.733243 Z" id="Path" fill="#000000" opacity="0.1"></path>
                <path d="M193.073195,162.185219 C193.073195,162.185219 192.024391,160.257136 190.012675,160.969148 C190.012675,160.969148 188.882497,163.27697 187.75232,163.65445 C186.622142,164.031929 186.997361,165.288686 189.560604,164.827574 C192.123846,164.366462 195.977751,163.988982 195.977751,163.988982 L196.145018,161.640473 L198.744426,158.326793 C198.744426,158.326793 200.29729,156.920852 197.989467,154.154178 L197.989467,154.635633 C197.989467,154.635633 198.441538,156.52303 197.905834,156.816876 C197.37013,157.110722 194.928947,161.891373 194.928947,161.891373 L193.073195,162.185219 Z" id="Path" fill="#303D65"></path>
                <path d="M177.596544,128.085503 C177.63362,128.72132 177.716717,129.353614 177.845183,129.97742 C175.478592,129.629325 173.283787,129.803373 171.846201,129.91413 L171.846201,128.042556 L177.596544,128.085503 Z" id="Path" fill="#000000" opacity="0.1"></path>
                <path d="M199.029231,130.938071 C199.029231,130.938071 195.665822,131.100817 191.660473,131.134722 C191.547456,130.079136 191.522592,129.217941 191.522592,129.217941 C191.522592,129.217941 193.782947,126.071527 197.93974,129.46884 C198.27044,129.741559 198.561779,130.058761 198.805456,130.411408 C198.870891,130.590713 198.945583,130.766504 199.029231,130.938071 L199.029231,130.938071 Z" id="Path" fill="#000000" opacity="0.1"></path>
                <path d="M199.029231,130.560592 C199.029231,130.560592 184.307538,131.272604 179.816213,130.015846 C175.324888,128.759089 170.88329,129.84632 170.211964,129.552473 C169.540639,129.258627 170.087645,124.688189 170.664036,123.555751 C171.240426,122.423314 174.481775,110.972355 174.481775,110.972355 L177.585243,94.781432 L180.858237,93.8772899 L181.084272,93.814 L186.782627,92.2317515 L190.962024,91.0789704 C190.962024,91.0789704 199.266568,123.501503 198.552296,125.888438 C198.29348,126.804312 198.252455,127.768024 198.432497,128.70258 C198.544314,129.346585 198.745149,129.971912 199.029231,130.560592 L199.029231,130.560592 Z" id="Path" fill="#303D65"></path>
                <path d="M166.776225,83.7079527 C166.776225,83.7079527 163.837763,86.8543669 166.061953,88.6151834 C168.286142,90.376 169.753112,88.7847101 169.753112,88.7847101 L166.776225,83.7079527 Z" id="Path" fill="#C7DAF5"></path>
                <path d="M166.776225,83.7079527 C166.776225,83.7079527 163.837763,86.8543669 166.061953,88.6151834 C168.286142,90.376 169.753112,88.7847101 169.753112,88.7847101 L166.776225,83.7079527 Z" id="Path" fill="#000000" opacity="0.1"></path>
                <path d="M190.537077,62.9895385 C190.537077,62.9895385 190.193503,63.3150296 189.673621,63.8010059 C188.934485,64.4904142 187.840473,65.5007929 186.868521,66.348426 C185.512308,67.5192899 184.416036,68.3827456 184.811598,67.6436095 C185.20716,66.9044734 185.132568,65.6341538 184.935917,64.438426 L184.895231,64.2010888 C184.731189,63.3229542 184.513792,62.455631 184.244249,61.6039408 C184.244249,61.6039408 186.41645,58.7965799 187.618959,57.6890059 C188.07103,57.2753609 188.380698,57.0990533 188.396521,57.3883787 C188.419124,57.7816805 188.715231,58.6406154 189.074627,59.5718817 C189.088189,59.5990059 189.099491,59.6283905 189.110793,59.6555148 C189.354911,60.2816331 189.628414,60.9348757 189.870272,61.4931834 C190.23871,62.349858 190.537077,62.9895385 190.537077,62.9895385 Z" id="Path" fill="#FFB0B1"></path>
                <path d="M189.108533,59.6555148 C188.692423,61.8922077 187.091726,63.7250407 184.931396,64.438426 C184.765077,63.47907 184.533992,62.5320759 184.239728,61.6039408 C184.239728,61.6039408 188.32871,56.3192308 188.392,57.3883787 C188.430426,57.7952426 188.733314,58.6948639 189.108533,59.6555148 Z" id="Path" fill="#000000" opacity="0.1"></path>
                <path d="M184.529053,65.8511479 L185.057976,65.1074911 C185.057976,65.1074911 185.408331,67.245787 186.698994,66.3032189 C187.989657,65.3606509 188.055207,73.4007337 188.055207,73.4007337 L186.667349,94.1010651 L176.663018,93.502071 L176.945562,83.5 L178.07574,78.4661893 L180.87632,71.135858 L182.553503,68.7150178 L184.529053,65.8511479 Z" id="Path" fill="#000000" opacity="0.1"></path>
                <path d="M188.050686,73.5273136 L186.79845,92.2430533 L186.667349,94.2253846 L181.088793,93.8931124 L180.862757,93.8795503 L176.656237,93.6286509 L176.938781,83.6243195 L178.068959,78.5927692 L180.869538,71.2624379 L182.553503,68.8393373 L184.535834,65.9777278 L185.064757,65.2318107 C185.064757,65.2318107 185.415112,67.3723669 186.705775,66.4275385 L186.730639,66.4094556 L186.730639,66.4094556 C187.989657,65.6002485 188.050686,73.5273136 188.050686,73.5273136 Z" id="Path" fill="#1D2366"></path>
                <path d="M178.224923,76.8296923 C178.224923,76.8296923 177.723124,77.878497 176.715006,77.7112308 C175.706888,77.5439645 175.709148,81.4860237 175.709148,81.4860237 C175.709148,81.4860237 175.031041,82.1144024 174.57897,81.5696568 C174.126899,81.0249112 172.901787,82.8693609 172.901787,82.8693609 L165.268568,83.2061538 C165.268568,83.2061538 168.659101,84.7567574 167.994556,89.4560355 C167.994556,89.4560355 179.522367,88.7417633 179.906627,87.6477515 C180.290888,86.5537396 178.224923,76.8296923 178.224923,76.8296923 Z" id="Path" fill="#FFFFFF"></path>
                <path d="M178.224923,76.8296923 C178.224923,76.8296923 177.723124,77.878497 176.715006,77.7112308 C175.706888,77.5439645 175.709148,81.4860237 175.709148,81.4860237 C175.709148,81.4860237 175.031041,82.1144024 174.57897,81.5696568 C174.126899,81.0249112 172.901787,82.8693609 172.901787,82.8693609 L165.268568,83.2061538 C165.268568,83.2061538 168.659101,84.7567574 167.994556,89.4560355 C167.994556,89.4560355 179.522367,88.7417633 179.906627,87.6477515 C180.290888,86.5537396 178.224923,76.8296923 178.224923,76.8296923 Z" id="Path" fill="#000000" opacity="0.03"></path>
                <polygon id="Path" fill="#FFFFFF" points="156.037278 85.6789822 158.051254 87.3991124 174.619657 90.8800592 172.562734 88.7847101"></polygon>
                <path d="M184.558438,66.5111716 C184.284935,66.9225562 183.498331,69.0834556 182.838308,70.9618107 C182.291302,72.5259763 181.83245,73.9002722 181.83245,73.9002722 C181.83245,73.9002722 180.763302,80.864426 180.218556,82.1211834 C179.673811,83.3779408 179.967657,88.2919527 179.967657,88.2919527 L177.933337,100.414237 C177.933337,100.414237 177.011112,106.664118 175.587089,110.395964 C174.190189,114.06 172.607941,115.784651 172.564994,115.836639 C173.195633,114.984485 176.633633,98.1810059 176.633633,98.1810059 L177.763811,76.9969586 C177.763811,76.9969586 177.931077,74.9852426 178.100604,73.2651124 C178.27013,71.5449822 181.665183,69.1964734 181.665183,69.1964734 L184.947219,64.5288402 C185.284012,64.9876923 185.062497,65.756213 184.558438,66.5111716 Z" id="Path" fill="#FFFFFF"></path>
                <path d="M175.998473,93.7326272 C175.998473,93.7326272 171.174876,93.5246746 168.826367,90.7127929 C166.477858,87.9009112 174.237657,89.5826154 174.237657,89.5826154 L176.249373,90.0346864 L175.998473,93.7326272 Z" id="Path" fill="#FFB0B1"></path>
                <path d="M198.568118,125.90426 C198.309303,126.820134 198.268277,127.783846 198.44832,128.718402 C193.177172,129.093621 187.537586,127.665077 187.537586,127.665077 C186.488781,128.630249 183.719846,130.056533 183.719846,130.056533 L182.209929,111.347574 C181.247018,108.829538 180.869538,95.6177633 180.869538,95.6177633 C180.869538,95.6177633 180.955432,94.9260947 181.095574,93.8908521 C181.095574,93.8659882 181.095574,93.8388639 181.106876,93.814 C181.484355,90.9207456 182.237053,85.4891124 182.594189,84.754497 C183.098249,83.7486391 181.043586,81.0655976 181.043586,81.0655976 L181.977112,73.0910651 L182.09013,72.1304142 C184.06342,71.2488757 185.573337,68.4392544 185.573337,68.4392544 L186.730639,66.4049349 L186.730639,66.4049349 C187.994178,65.5957278 188.055207,73.5227929 188.055207,73.5227929 L186.80297,92.2385325 L190.982367,91.0857515 C190.982367,91.0857515 199.28013,123.512805 198.568118,125.90426 Z" id="Path" fill="#000000" opacity="0.1"></path>
                <path d="M203.979408,127.203964 C198.233586,130.056533 187.788485,127.414178 187.788485,127.414178 C186.73968,128.379349 183.970746,129.805633 183.970746,129.805633 L182.460828,111.096675 C181.497917,108.580899 181.120438,95.3691243 181.120438,95.3691243 C181.120438,95.3691243 182.336509,85.511716 182.838308,84.505858 C182.985231,84.2120118 182.91516,83.7757633 182.741112,83.3056095 C181.883495,81.0647843 181.568253,78.6528331 181.821148,76.2668639 L182.223491,72.842426 L182.336509,71.8817751 C184.307538,71.0002367 185.817456,68.188355 185.817456,68.188355 L186.868521,66.348426 L188.803385,62.9578935 L189.718828,61.3530414 L189.872533,61.4931834 L191.061479,62.5691124 C191.061479,62.5691124 191.565538,62.9850178 192.320497,63.6246982 C193.966036,65.0102959 196.809562,67.4514793 198.274272,68.9433136 C199.564935,70.2611006 199.971799,75.376284 200.082556,79.227929 C200.161669,81.761787 200.114201,83.7486391 200.114201,83.7486391 C198.812237,85.8869349 202.20955,103.085976 202.20955,103.085976 C203.014237,106.399657 203.979408,127.203964 203.979408,127.203964 Z" id="Path" fill="#FFFFFF"></path>
                <path d="M192.951136,68.1476686 C192.951136,68.1476686 189.006817,75.656568 189.470189,78.5068757 C189.933562,81.3571834 191.231006,84.5894911 190.600367,85.3444497 C190.163077,85.9239634 189.479643,86.2652622 188.753657,86.2666746 C188.125278,86.3096213 186.445834,87.4827456 186.445834,87.6093254 C186.445834,87.7359053 184.895231,87.7359053 183.507373,88.3235976 C182.119515,88.9112899 180.067112,89.2458225 180.067112,89.2458225 C180.067112,89.2458225 176.082107,89.1192426 175.704627,89.4967219 C175.327148,89.8742012 174.949669,92.1390769 175.747574,93.9428402 C176.545479,95.7466036 177.424757,97.0892544 178.096083,97.3333728 C178.767408,97.5774911 183.003314,96.1602485 186.441314,95.8234556 C189.879314,95.4866627 193.629243,92.769716 193.629243,92.769716 C193.629243,92.769716 197.738568,91.3004852 198.45284,88.8253964 C199.167112,86.3503077 197.571302,72.7610533 197.571302,72.7610533 C197.571302,72.7610533 196.341669,66.4275385 192.951136,68.1476686 Z" id="Path" fill="#000000" opacity="0.03"></path>
                <path d="M192.444817,67.5192899 C192.444817,67.5192899 188.502757,75.025929 188.96387,77.878497 C189.424982,80.7310651 190.724686,83.9611124 190.094047,84.716071 C189.656758,85.2955847 188.973324,85.6368835 188.247337,85.6382959 C187.618959,85.6812426 185.941775,86.8543669 185.941775,86.9809467 C185.941775,87.1075266 184.388911,87.1052663 183.003314,87.6929586 C181.617716,88.2806509 179.563053,88.6151834 179.563053,88.6151834 C179.563053,88.6151834 175.578047,88.4908639 175.200568,88.8683432 C174.823089,89.2458225 174.445609,91.5106982 175.243515,93.3144615 C176.04142,95.1182249 176.920698,96.4608757 177.592024,96.7049941 C178.263349,96.9491124 182.499254,95.5296095 185.939515,95.1950769 C189.379775,94.8605444 193.116142,92.1345562 193.116142,92.1345562 C193.116142,92.1345562 197.225467,90.6675858 197.93974,88.192497 C198.654012,85.7174083 197.058201,72.1281538 197.058201,72.1281538 C197.058201,72.1281538 195.84213,65.7991598 192.444817,67.5192899 Z" id="Path" fill="#000000" opacity="0.03"></path>
                <path d="M192.822296,67.7701893 C192.822296,67.7701893 188.882497,75.2790888 189.334568,78.120355 C189.786639,80.9616213 191.095385,84.2029704 190.464746,84.957929 C190.028152,85.5382785 189.344272,85.8797998 188.618036,85.8801538 C187.989657,85.9231006 186.312473,87.0962249 186.312473,87.2228047 C186.312473,87.3493846 184.759609,87.3493846 183.374012,87.9370769 C181.988414,88.5247692 179.933751,88.8593018 179.933751,88.8593018 C179.933751,88.8593018 175.948746,88.7327219 175.571266,89.1102012 C175.193787,89.4876805 174.816308,91.7525562 175.614213,93.5563195 C176.412118,95.3600828 177.291396,96.7027337 177.962722,96.9468521 C178.634047,97.1909704 182.869953,95.7737278 186.310213,95.4369349 C189.750473,95.100142 193.48232,92.3764142 193.48232,92.3764142 C193.48232,92.3764142 197.591645,90.9071834 198.305917,88.4320947 C199.020189,85.9570059 197.424379,72.3677515 197.424379,72.3677515 C197.424379,72.3677515 196.219609,66.0500592 192.822296,67.7701893 Z" id="Path" fill="#FFFFFF"></path>
                <path d="M192.738663,87.9031716 C192.738663,87.9031716 189.592249,87.2747929 190.684,88.3235976 C191.775751,89.3724024 191.773491,90.2946272 193.116142,90.2516805 C194.458793,90.2087337 192.738663,87.9031716 192.738663,87.9031716 Z" id="Path" fill="#000000" opacity="0.1"></path>
                <path d="M198.06632,110.511243 C198.06632,110.511243 196.640036,111.476414 199.366024,113.698343 C202.092012,115.920272 198.06632,110.511243 198.06632,110.511243 Z" id="Path" fill="#000000" opacity="0.1"></path>
                <path d="M195.338071,118.438308 C195.338071,118.564888 194.836272,123.051692 196.723669,124.18413 C198.611065,125.316568 195.338071,118.438308 195.338071,118.438308 Z" id="Path" fill="#000000" opacity="0.1"></path>
                <path d="M165.390627,83.2016331 C163.871669,83.2536213 160.582852,83.7192544 162.28716,86.8973136 C163.794817,89.7091953 166.326414,87.8308402 167.743657,86.4022959 C167.397858,85.073576 166.5557,83.9280471 165.390627,83.2016331 L165.390627,83.2016331 Z" id="Path" fill="#FFB0B1"></path>
                <path d="M167.768521,86.377432 C167.791124,86.3570888 167.811467,86.3344852 167.831811,86.314142 C167.811467,86.3344852 167.791124,86.3570888 167.768521,86.377432 Z" id="Path" fill="#FFB0B1"></path>
                <path d="M192.320497,63.7490178 C190.706604,64.852071 189.352651,65.7833373 189.09045,65.9777278 C188.364876,66.5111716 186.981538,69.6575858 186.1,71.2624379 C185.390249,72.5553609 183.091467,72.8876331 182.223491,72.9690059 L182.327467,72.0173964 C184.298497,71.1381183 185.808414,68.3262367 185.808414,68.3262367 L189.709787,61.4909231 L191.052438,62.7069941 C191.052438,62.7069941 191.565538,63.1115976 192.320497,63.7490178 Z" id="Path" fill="#000000" opacity="0.1"></path>
                <path d="M192.320497,63.6246982 C190.706604,64.7254911 189.352651,65.6590178 189.09045,65.8511479 C188.364876,66.3868521 186.981538,69.5310059 186.1,71.135858 C185.390249,72.4287811 183.091467,72.7610533 182.223491,72.842426 L182.336509,71.8817751 C184.307538,71.0002367 185.817456,68.188355 185.817456,68.188355 L189.718828,61.3530414 L191.061479,62.5691124 C191.061479,62.5691124 191.565538,62.9759763 192.320497,63.6246982 Z" id="Path" fill="#DCE7FF"></path>
                <path d="M189.214801,58.2699172 C189.216194,58.7076231 189.169961,59.1441833 189.076888,59.5718817 C188.908797,60.3711213 188.582977,61.1288056 188.118497,61.8005917 C186.373784,64.3381487 183.036742,65.2201189 180.266102,63.8759561 C177.495462,62.5317933 176.122711,59.3648894 177.035882,56.4239138 C177.949053,53.4829382 180.874097,51.6504966 183.918804,52.1119952 C186.963511,52.5734937 189.214144,55.1904337 189.214801,58.2699172 L189.214801,58.2699172 Z" id="Path" fill="#FFB0B1"></path>
                <path d="M200.089337,79.227929 C199.236265,78.7028018 198.54175,77.9559435 198.079882,77.0670296 C197.729527,76.3731006 197.49671,75.5751953 196.895456,75.0801775 C196.357491,74.6416686 195.629657,74.5331716 194.962852,74.3365207 C192.754485,73.6832781 190.894213,71.6647811 190.830923,69.3637396 C190.799278,68.2810296 191.136071,67.1983195 190.982367,66.1269112 C190.895665,65.518902 190.653536,64.9435531 190.279396,64.4565089 C190.096629,64.2217495 189.893952,64.0031919 189.673621,63.8032663 C189.379775,63.5252426 189.070107,63.2562604 188.803385,62.9601538 C188.630303,62.7784174 188.478623,62.5774411 188.351314,62.3611598 C188.251723,62.1838629 188.170675,61.9967714 188.109456,61.8028521 C187.698071,60.5189704 188.07103,58.9909704 187.609917,57.6912663 C187.609917,57.6686627 187.594095,57.6437988 187.585053,57.6211953 C187.408746,57.1578225 187.05387,56.6967101 186.563373,56.6605444 C186.072876,56.6243787 185.645669,57.033503 185.175515,57.2188521 C184.19,57.6008521 183.125373,56.9498698 182.304864,56.2853254 C181.484355,55.6207811 180.557609,54.8613018 179.511065,55.0104852 C178.821657,55.1076805 178.274651,55.5800947 177.639491,55.824213 C177.4923,55.8780298 177.341156,55.9203499 177.18742,55.9507929 C178.300565,53.1826628 181.220094,51.5924309 184.14943,52.15867 C187.078766,52.7249091 189.19534,55.2886167 189.196686,58.2721775 C189.198111,58.7098835 189.151878,59.1464436 189.058805,59.574142 C189.072367,59.6012663 189.083669,59.6306509 189.09497,59.6577751 C189.339089,60.2838935 189.612592,60.9371361 189.85445,61.4954438 L191.043396,62.5713728 C191.043396,62.5713728 191.547456,62.9872781 192.302414,63.6269586 C193.947953,65.0125562 196.791479,67.4537396 198.256189,68.945574 C199.564935,70.2611006 199.971799,75.376284 200.089337,79.227929 Z" id="Path" fill="#000000" opacity="0.1"></path>
                <path d="M177.580722,51.9883905 C177.881349,51.3758343 178.032793,50.6909467 178.389929,50.1122959 C178.916592,49.2646627 179.838817,48.7334793 180.781385,48.4079882 C183.249692,47.5580947 188.466592,46.3216805 190.023976,48.4079882 C190.331385,48.8216331 190.584544,49.2963077 191.009491,49.5878935 C191.352991,49.7749412 191.710439,49.9351504 192.078639,50.0670888 C193.073195,50.5349822 193.708355,51.5498817 194.047408,52.5941657 C194.386462,53.6384497 194.485917,54.7460237 194.725515,55.817432 C195.041964,57.1872071 195.600272,58.4869112 196.154059,59.7798343 C196.807302,61.305574 197.510272,62.8855621 198.762509,63.9660118 C200.482639,65.437503 200.86916,67.5192899 202.458189,69.1309231 C204.350107,71.0477041 204.289077,74.2099408 203.314864,76.7189349 C203.153388,77.0361824 203.075586,77.3894045 203.088828,77.7451361 C203.180474,78.1084004 203.37421,78.4378311 203.647136,78.6944852 L204.680118,79.8608284 C202.145102,80.4077693 199.554498,79.2088424 198.330781,76.9223669 C197.978166,76.2284379 197.745349,75.4305325 197.144095,74.9377751 C196.60613,74.4970059 195.880556,74.3907692 195.211491,74.191858 C193.003124,73.5386154 191.142852,71.5201183 191.079562,69.2190769 C191.047917,68.1386272 191.38471,67.0536568 191.233266,65.9822485 C191.142538,65.3819516 190.901498,64.814341 190.532556,64.3321893 C189.951645,63.5772308 189.081408,63.0641302 188.611254,62.2368402 C187.815609,60.8331598 188.419124,59.0067929 187.844994,57.4900947 C187.668686,57.0380237 187.316071,56.5656095 186.823314,56.5294438 C186.330556,56.4932781 185.905609,56.9046627 185.435456,57.0877515 C184.449941,57.4697515 183.387574,56.8187692 182.567065,56.1542249 C181.746556,55.4896805 180.81755,54.7324615 179.773266,54.881645 C179.081598,54.9788402 178.536852,55.4489941 177.899432,55.6931124 C177.429278,55.8739408 176.475408,56.0366864 176.061763,55.6388639 C175.196047,54.8070533 177.210024,52.7320473 177.580722,51.9883905 Z" id="Path" fill="#303D65"></path>
                <path d="M198.918473,76.2284379 C198.568118,75.5345089 198.335302,74.7366036 197.734047,74.2415858 C197.196083,73.8008166 196.468249,73.6945799 195.801444,73.497929 C193.593077,72.8446864 191.732805,70.8261893 191.669515,68.5251479 C191.635609,67.4424379 191.974663,66.3597278 191.820959,65.2883195 C191.734257,64.6803102 191.492128,64.1049614 191.117988,63.6179172 C190.539337,62.8629586 189.66684,62.3475976 189.198947,61.5203077 C188.401041,60.1166272 189.006817,58.2902604 188.432686,56.7735621 C188.256379,56.3214911 187.903763,55.8490769 187.411006,55.8129112 C186.918249,55.7767456 186.493302,56.1858698 186.023148,56.3689586 C185.037633,56.7532189 183.973006,56.1022367 183.154757,55.4376923 C182.336509,54.7731479 181.405243,54.015929 180.358698,54.1628521 C179.680592,54.2600473 179.124544,54.7302012 178.487124,54.9765799 C178.01697,55.1574083 177.063101,55.3201538 176.649456,54.9223314 C175.78374,54.086 177.797716,52.0109941 178.161633,51.2695976 C178.46226,50.6570414 178.613704,49.9721538 178.97084,49.393503 L179.03187,49.298568 C178.766028,49.5236321 178.537202,49.7890705 178.353763,50.0851716 C177.992107,50.6638225 177.842923,51.3487101 177.544556,51.9612663 C177.180639,52.7049231 175.166663,54.779929 176.032379,55.614 C176.443763,56.0118225 177.388592,55.8400355 177.870047,55.6682485 C178.505207,55.4241302 179.049953,54.9539763 179.741621,54.8545207 C180.785905,54.7075976 181.714911,55.4648166 182.53542,56.1293609 C183.355929,56.7939053 184.420556,57.4448876 185.403811,57.0628876 C185.876225,56.8797988 186.287609,56.4661538 186.791669,56.5045799 C187.295728,56.5430059 187.639302,57.001858 187.815609,57.4652308 C188.38974,58.9728876 187.783964,60.7992544 188.579609,62.2119763 C189.049763,63.0370059 189.92226,63.5523669 190.500911,64.3073254 C190.875051,64.7943697 191.11718,65.3697185 191.203882,65.9777278 C191.357586,67.0491361 191.018533,68.1318462 191.052438,69.2145562 C191.122509,71.517858 192.976,73.536355 195.184367,74.1873373 C195.851172,74.3839882 196.579006,74.4902249 197.11697,74.9332544 C197.718225,75.4260118 197.948781,76.2239172 198.301396,76.9178462 C199.525113,79.2043217 202.115717,80.4032486 204.650734,79.8563077 L204.164757,79.3047811 C202.030982,79.3409467 199.885905,78.1339172 198.918473,76.2284379 Z" id="Path" fill="#000000" opacity="0.1"></path>
                <path d="M184.434118,66.6377515 C184.158355,67.0491361 183.371751,69.2100355 182.713988,71.0861302 C182.099172,70.8487929 181.538604,69.3207929 181.538604,69.3207929 L184.813858,64.6531598 C185.157432,65.1142722 184.935917,65.8827929 184.434118,66.6377515 Z" id="Path" fill="#000000" opacity="0.1"></path>
                <path d="M184.558438,66.5111716 C184.284935,66.9225562 183.498331,69.0834556 182.838308,70.9618107 C182.223491,70.7244734 181.665183,69.1964734 181.665183,69.1964734 L184.947219,64.5288402 C185.284012,64.9876923 185.062497,65.756213 184.558438,66.5111716 Z" id="Path" fill="#DCE7FF"></path>
                <path d="M165.478781,87.975503 L163.659195,82.245503 C163.61515,82.1094242 163.627109,81.9614077 163.692427,81.8341643 C163.757745,81.7069209 163.871046,81.6109268 164.00729,81.5673964 L164.00729,81.5673964 C164.143346,81.5220711 164.291922,81.5334358 164.419502,81.5989268 C164.547082,81.6644179 164.64292,81.7785187 164.685396,81.9154911 L166.504982,87.6500118 L166.324154,88.8502604 L165.478781,87.975503 Z" id="Path" fill="#BE8B87"></path>
                <path d="M163.830982,81.7369231 L163.830982,81.7369231 C163.967359,81.6929732 164.115634,81.7052436 164.24293,81.7710137 C164.370227,81.8367837 164.466027,81.9506185 164.509089,82.0872781 L166.328675,87.8172781 L166.190793,88.7214201 L166.324154,88.8593018 L166.504982,87.6590533 L164.685396,81.9290533 C164.64292,81.7920809 164.547082,81.67798 164.419502,81.612489 C164.291922,81.5469979 164.143346,81.5356333 164.00729,81.5809586 L164.00729,81.5809586 C163.894022,81.6161116 163.796015,81.6886209 163.729266,81.7866509 C163.761242,81.7663896 163.795353,81.749713 163.830982,81.7369231 L163.830982,81.7369231 Z" id="Path" fill="#FFFFFF" opacity="0.1"></path>
                <polygon id="Path" fill="#EFC8C4" points="165.478781 87.975503 166.500462 87.6500118 166.351278 88.6355266 166.319633 88.8502604 166.021266 88.5383314"></polygon>
                <path d="M166.021266,88.5383314 C166.03993,88.5167107 166.062087,88.4983735 166.086817,88.4840828 C166.116616,88.4657306 166.154212,88.4657306 166.184012,88.4840828 C166.198811,88.5010152 166.211,88.5200612 166.220178,88.5405917 C166.247796,88.5887608 166.296249,88.6213416 166.351278,88.6287456 L166.319633,88.8547811 L166.021266,88.5383314 Z" id="Path" fill="#727A9C"></path>
                <path d="M163.650154,84.2752885 C163.650154,84.2752885 167.300627,84.2549586 166.439432,85.8055621 C165.578237,87.3561657 164.237846,87.5460355 164.237846,87.5460355 L163.650154,84.2752885 Z" id="Path" fill="#FFB0B1"></path>
            </g>
        </g>
    </g>
</svg>